<mxfile host="app.diagrams.net" modified="2022-12-15T12:34:50.018Z" agent="5.0 (Macintosh)" etag="_0-hNal1N-9hnumh7YBN" version="20.6.0" type="github">
  <diagram id="RXlJu9_Hq2XubgYABgwg" name="Page-1">
    <mxGraphModel dx="786" dy="490" grid="0" gridSize="10" guides="1" tooltips="1" connect="1" arrows="1" fold="1" page="1" pageScale="1" pageWidth="850" pageHeight="1100" math="0" shadow="0">
      <root>
        <mxCell id="0" />
        <mxCell id="1" parent="0" />
        <mxCell id="aHKCgl6D7gJSmUVdyoO8-1" value="" style="editableCssRules=.*;shape=image;verticalLabelPosition=bottom;labelBackgroundColor=#ffffff;verticalAlign=top;aspect=fixed;imageAspect=0;image=data:image/svg+xml,PHN2ZyB4bWxucz0iaHR0cDovL3d3dy53My5vcmcvMjAwMC9zdmciIHhtbG5zOnY9Imh0dHBzOi8vdmVjdGEuaW8vbmFubyIgd2lkdGg9IjcwMi44NDYzMTM0NzY1NjI1IiBoZWlnaHQ9IjY4MS45NjcxMDIwNTA3ODEyIiB2aWV3Qm94PSIxMC4wMDEwMjYxNTM1NjQ0NTMgMTAuMDAwOTMzNjQ3MTU1NzYyIDcwMi44NDYzMTM0NzY1NjI1IDY4MS45NjcxMDIwNTA3ODEyIj4mI3hhOwk8c3R5bGUgdHlwZT0idGV4dC9jc3MiPiYjeGE7CS5zdDB7ZmlsbDojMzI2Y2U1O30mI3hhOwkuc3Qxe2ZpbGw6I2ZmZjt9JiN4YTsJPC9zdHlsZT4mI3hhOwk8cGF0aCBjbGFzcz0ic3QwIiBkPSJNMzU4Ljk4NyAxMC4wNmMtNi4yMTMuMzEzLTEyLjMwMSAxLjg1NC0xNy45MDYgNC41MzFMOTYuNzM3IDEzMS4zNDJjLTEyLjgxMSA2LjExOC0yMi4xMTYgMTcuNjg5LTI1LjI4MSAzMS40MzhsLTYwLjI4MSAyNjIuMjVjLTIuODEyIDEyLjIwNy0uNTI0IDI1LjAyNCA2LjM0NCAzNS41MzFhNDYuMzUgNDYuMzUgMCAwIDAgMi42NTYgMy42ODhsMTY5LjEyNSAyMTAuMjgxYzguODY4IDExLjAyMiAyMi4zMTMgMTcuNDQgMzYuNTMxIDE3LjQzOGwyNzEuMjE5LS4wNjJjMTQuMjEyLjAxIDI3LjY1Ny02LjM5NiAzNi41MzEtMTcuNDA2bDE2OS4wNjMtMjEwLjMxM2M4Ljg3My0xMS4wMjggMTIuMTk3LTI1LjQ2NCA5LjAzMS0zOS4yMTlsLTYwLjM3NS0yNjIuMjVjLTMuMTY1LTEzLjc0OC0xMi40Ny0yNS4zMTktMjUuMjgxLTMxLjQzN0wzODEuNjQzIDE0LjU5MmMtNy4wNS0zLjM2OC0xNC44NDEtNC45MjYtMjIuNjU2LTQuNTMxeiIvPiYjeGE7CTxwYXRoIGNsYXNzPSJzdDEgc3QyIiBkPSJNMzYxLjQwOCA5OS4zMDhjLTguMDc3LjAwMS0xNC42MjYgNy4yNzYtMTQuNjI1IDE2LjI1IDAgLjEzOC4wMjguMjY5LjAzMS40MDYtLjAxMiAxLjIxOS0uMDcxIDIuNjg4LS4wMzEgMy43NS4xOTMgNS4xNzYgMS4zMjEgOS4xMzcgMiAxMy45MDYgMS4yMyAxMC4yMDcgMi4yNjEgMTguNjY3IDEuNjI1IDI2LjUzMS0uNjE5IDIuOTY1LTIuODAzIDUuNjc3LTQuNzUgNy41NjNsLS4zNDQgNi4xODhjLTguNzc3LjcyNy0xNy42MTIgMi4wNTktMjYuNDM3IDQuMDYzLTM3Ljk3NSA4LjYyMi03MC42NyAyOC4xODMtOTUuNTYyIDU0LjU5NC0xLjYxNS0xLjEwMi00LjQ0MS0zLjEyOS01LjI4MS0zLjc1LTIuNjExLjM1My01LjI1IDEuMTU4LTguNjg3LS44NDQtNi41NDUtNC40MDYtMTIuNTA2LTEwLjQ4Ny0xOS43MTktMTcuODEyLTMuMzA1LTMuNTA0LTUuNjk4LTYuODQxLTkuNjI1LTEwLjIxOS0uODkyLS43NjctMi4yNTMtMS44MDUtMy4yNS0yLjU5NC0zLjA3LTIuNDQ4LTYuNjkxLTMuNzI0LTEwLjE4Ny0zLjg0NC00LjQ5Ni0uMTU0LTguODI0IDEuNjA0LTExLjY1NiA1LjE1Ni01LjAzNSA2LjMxNS0zLjQyMyAxNS45NjggMy41OTQgMjEuNTYzLjA3MS4wNTcuMTQ3LjEwMS4yMTkuMTU2Ljk2NC43ODIgMi4xNDUgMS43ODMgMy4wMzEgMi40MzggNC4xNjcgMy4wNzcgNy45NzMgNC42NTEgMTIuMTI1IDcuMDk0IDguNzQ3IDUuNDAyIDE1Ljk5OCA5Ljg4MSAyMS43NSAxNS4yODEgMi4yNDYgMi4zOTQgMi42MzkgNi42MTMgMi45MzggOC40MzhsNC42ODggNC4xODhjLTI1LjA5MyAzNy43NjQtMzYuNzA3IDg0LjQwOS0yOS44NDQgMTMxLjkzOGwtNi4xMjUgMS43ODFjLTEuNjE0IDIuMDg1LTMuODk1IDUuMzY1LTYuMjgxIDYuMzQ0LTcuNTI1IDIuMzctMTUuOTk0IDMuMjQxLTI2LjIxOSA0LjMxMy00LjguMzk5LTguOTQyLjE2MS0xNC4wMzEgMS4xMjUtMS4xMi4yMTItMi42ODEuNjE5LTMuOTA2LjkwNi0uMDQzLjAwOS0uMDgyLjAyMi0uMTI1LjAzMS0uMDY3LjAxNS0uMTU1LjA0OC0uMjE5LjA2My04LjYyIDIuMDgzLTE0LjE1OCAxMC4wMDYtMTIuMzc1IDE3LjgxM3MxMC4yMDMgMTIuNTU3IDE4Ljg3NSAxMC42ODhjLjA2My0uMDE0LjE1NC0uMDE3LjIxOS0uMDMxLjA5OC0uMDIyLjE4NC0uMDcuMjgxLS4wOTQgMS4yMDktLjI2NSAyLjcyNC0uNTYxIDMuNzgxLS44NDQgNS4wMDMtMS4zNCA4LjYyNy0zLjMwOCAxMy4xMjUtNS4wMzEgOS42NzctMy40NzEgMTcuNjkyLTYuMzcgMjUuNS03LjUgMy4yNjEtLjI1NSA2LjY5NyAyLjAxMiA4LjQwNiAyLjk2OWw2LjM3NS0xLjA5NGMxNC42NyA0NS40ODMgNDUuNDE0IDgyLjI0NSA4NC4zNDQgMTA1LjMxMmwtMi42NTYgNi4zNzVjLjk1NyAyLjQ3NSAyLjAxMyA1LjgyNSAxLjMgOC4yNjktMi44MzkgNy4zNjEtNy43MDEgMTUuMTMxLTEzLjIzOCAyMy43OTMtMi42ODEgNC4wMDItNS40MjUgNy4xMDgtNy44NDQgMTEuNjg4LS41NzkgMS4wOTYtMS4zMTYgMi43NzktMS44NzUgMy45MzgtMy43NTkgOC4wNDItMS4wMDIgMTcuMzA1IDYuMjE5IDIwLjc4MSA3LjI2NiAzLjQ5OCAxNi4yODQtLjE5MSAyMC4xODctOC4yNS4wMDYtLjAxMS4wMjYtLjAyLjAzMS0uMDMxcy0uMDA0LS4wMjMgMC0uMDMxYy41NTYtMS4xNDMgMS4zNDQtMi42NDQgMS44MTMtMy43MTkgMi4wNzItNC43NDcgMi43NjItOC44MTUgNC4yMTktMTMuNDA2IDMuODctOS43MiA1Ljk5Ni0xOS45MTkgMTEuMzIzLTI2LjI3NCAxLjQ1OS0xLjc0IDMuODM3LTIuNDA5IDYuMzAyLTMuMDdsMy4zMTMtNmMzMy45MzggMTMuMDI3IDcxLjkyNyAxNi41MjIgMTA5Ljg3NSA3LjkwNmExODkuNzcgMTg5Ljc3IDAgMCAwIDI1LjA5NC03LjU2MmwzLjEyNSA1LjYyNWMyLjUwNi44MTUgNS4yNCAxLjIzNiA3LjQ2OSA0LjUzMSAzLjk4NSA2LjgwOSA2LjcxMSAxNC44NjQgMTAuMDMxIDI0LjU5NCAxLjQ1NyA0LjU5MSAyLjE3OCA4LjY1OSA0LjI1IDEzLjQwNi40NzIgMS4wODIgMS4yNTYgMi42MDUgMS44MTMgMy43NSAzLjg5NSA4LjA4NSAxMi45NDIgMTEuNzg3IDIwLjIxOSA4LjI4MSA3LjIxOS0zLjQ3OCA5Ljk4LTEyLjc0IDYuMjE5LTIwLjc4MWwtMS45MDYtMy45MzdjLTIuNDE5LTQuNTgtNS4xNjMtNy42NTQtNy44NDQtMTEuNjU2LTUuNTM3LTguNjYyLTEwLjEzLTE1Ljg1OC0xMi45NjktMjMuMjE5LTEuMTg3LTMuNzk3LjItNi4xNTggMS4xMjUtOC42MjUtLjU1NC0uNjM1LTEuNzM5LTQuMjItMi40MzctNS45MDYgNDAuNDU3LTIzLjg4OCA3MC4yOTktNjIuMDIxIDg0LjMxMy0xMDYuMDYyIDEuODkyLjI5NyA1LjE4Mi44NzkgNi4yNSAxLjA5NCAyLjItMS40NTEgNC4yMjItMy4zNDQgOC4xODgtMy4wMzEgNy44MDggMS4xMjkgMTUuODIzIDQuMDMgMjUuNSA3LjUgNC40OTggMS43MjMgOC4xMjIgMy43MjMgMTMuMTI1IDUuMDYzIDEuMDU3LjI4MyAyLjU3Mi41NDcgMy43ODEuODEzLjA5Ny4wMjQuMTgzLjA3MS4yODEuMDk0LjA2NS4wMTUuMTU2LjAxNy4yMTkuMDMxIDguNjcyIDEuODY3IDE3LjA5NC0yLjg3OSAxOC44NzUtMTAuNjg3cy0zLjc1NC0xNS43MzItMTIuMzc1LTE3LjgxMmMtMS4yNTQtLjI4NS0zLjAzMi0uNzY5LTQuMjUtMS01LjA4OS0uOTY0LTkuMjMxLS43MjYtMTQuMDMxLTEuMTI1LTEwLjIyNS0xLjA3MS0xOC42OTMtMS45NDMtMjYuMjE5LTQuMzEyLTMuMDY4LTEuMTktNS4yNTEtNC44NDEtNi4zMTMtNi4zNDRsLTUuOTA2LTEuNzE5YzMuMDYyLTIyLjE1NCAyLjIzNy00NS4yMTEtMy4wNjItNjguMjgxLTUuMzQ4LTIzLjI4NS0xNC44LTQ0LjU4MS0yNy40MDYtNjMuMzQ0bDUuMTg4LTQuNjU2Yy4yMzctMi42MjQuMDMzLTUuMzc2IDIuNzUtOC4yODEgNS43NTEtNS40MDEgMTMuMDAzLTkuODc5IDIxLjc1LTE1LjI4MSA0LjE1Mi0yLjQ0MyA3Ljk5LTQuMDE3IDEyLjE1Ni03LjA5NC45NDItLjY5NiAyLjIyOS0xLjc5OCAzLjIxOS0yLjU5NCA3LjAxNS01LjU5NiA4LjYzMS0xNS4yNDggMy41OTQtMjEuNTYycy0xNC43OTctNi45MDktMjEuODEyLTEuMzEyYy0uOTk5Ljc5MS0yLjM1NCAxLjgyMy0zLjI1IDIuNTk0LTMuOTI3IDMuMzc4LTYuMzUxIDYuNzE0LTkuNjU2IDEwLjIxOS03LjIxMiA3LjMyNi0xMy4xNzQgMTMuNDM4LTE5LjcxOSAxNy44NDQtMi44MzYgMS42NTEtNi45OSAxLjA4LTguODc1Ljk2OWwtNS41NjIgMy45NjljLTMxLjcxOS0zMy4yNjEtNzQuOTA1LTU0LjUyNS0xMjEuNDA2LTU4LjY1NmwtLjM0NC02LjUzMWMtMS45MDQtMS44MjItNC4yMDMtMy4zNzctNC43ODEtNy4zMTItLjYzNi03Ljg2NC40MjYtMTYuMzI1IDEuNjU2LTI2LjUzMS42NzktNC43NjkgMS44MDctOC43MyAyLTEzLjkwNi4wNDQtMS4xNzctLjAyNi0yLjg4NC0uMDMxLTQuMTU2LS4wMDEtOC45NzQtNi41NDgtMTYuMjUxLTE0LjYyNS0xNi4yNXptLTE4LjMxMiAxMTMuNDM4bC00LjM0NCA3Ni43MTktLjMxMi4xNTZjLS4yOTEgNi44NjMtNS45NCAxMi4zNDQtMTIuODc1IDEyLjM0NGExMi44MiAxMi44MiAwIDAgMS03LjU5NC0yLjQ2OWwtLjEyNS4wNjMtNjIuOTA2LTQ0LjU5NGMxOS4zMzQtMTkuMDExIDQ0LjA2My0zMy4wNiA3Mi41NjItMzkuNTMxIDUuMjA2LTEuMTgyIDEwLjQxLTIuMDU5IDE1LjU5NC0yLjY4N3ptMzYuNjU2IDBjMzMuMjczIDQuMDkyIDY0LjA0NSAxOS4xNTkgODcuNjI1IDQyLjI1bC02Mi41IDQ0LjMxMy0uMjE5LS4wOTRhMTIuOTEgMTIuOTEgMCAwIDEtMTcuNjg3LTIuMzc1Yy0xLjc3MS0yLjIyMS0yLjcwMS00LjgzMi0yLjgxMi03LjQ2OWwtLjA2Mi0uMDMxek0yMzIuMTI2IDI4My42Mmw1Ny40MzcgNTEuMzc1LS4wNjIuMzEzYTEyLjg4IDEyLjg4IDAgMCAxIDEuNjI1IDE3Ljc1IDEyLjg5IDEyLjg5IDAgMCAxLTYuNjg3IDQuNDA2bC0uMDYyLjI1LTczLjYyNSAyMS4yNWMtMy43NDctMzQuMjY1IDQuMzI5LTY3LjU3NCAyMS4zNzUtOTUuMzQ0em0yNTguMTU2LjAzMWM4LjUzNCAxMy44MzMgMTQuOTk3IDI5LjI4MiAxOC44NDQgNDYuMDMxIDMuODAxIDE2LjU0OCA0Ljc1NSAzMy4wNjcgMy4xODggNDkuMDMxbC03NC0yMS4zMTItLjA2Mi0uMzEyYy02LjYyNy0xLjgxMS0xMC42OTktOC41NTItOS4xNTYtMTUuMzEyLjYzMi0yLjc3IDIuMTAyLTUuMTEzIDQuMDk0LTYuODQ0bC0uMDMxLS4xNTYgNTcuMTI1LTUxLjEyNXptLTE0MC42NTYgNTUuMzEzaDIzLjUzMWwxNC42MjUgMTguMjgxLTUuMjUgMjIuODEzLTIxLjEyNSAxMC4xNTYtMjEuMTg3LTEwLjE4Ny01LjI1LTIyLjgxMnptNzUuNDM4IDYyLjU2M2ExMi44MyAxMi44MyAwIDAgMSAyLjk2OS4yMTlsLjEyNS0uMTU2IDc2LjE1NiAxMi44NzVjLTExLjE0NiAzMS4zMTMtMzIuNDczIDU4LjQ0LTYwLjk2OSA3Ni41OTRsLTI5LjU2Mi03MS40MDYuMDk0LS4xMjVjLTIuNzE2LTYuMzEuMDAyLTEzLjcxIDYuMjUtMTYuNzE5IDEuNi0uNzcgMy4yNzEtMS4xOTcgNC45MzgtMS4yODF6bS0xMjcuOTA2LjMxM2ExMi45IDEyLjkgMCAwIDEgMTIuMzc1IDEwLjAzMSAxMi43NyAxMi43NyAwIDAgMS0uNzE5IDcuOTM4bC4yMTkuMjgxLTI5LjI1IDcwLjY4OGMtMjcuMzQ3LTE3LjU0OS00OS4xMjktNDMuODI0LTYwLjc4MS03Ni4wNjJsNzUuNS0xMi44MTIuMTI1LjE1NmMuODQ1LS4xNTUgMS43MDEtLjIzIDIuNTMxLS4yMTl6bTYzLjc4MSAzMC45NjljMi4wMjQtLjA3NCA0LjA3OS4zNDEgNi4wMzEgMS4yODEgMi41NiAxLjIzMyA0LjUzNyAzLjE3MyA1Ljc4MSA1LjVoLjI4MWwzNy4yMTkgNjcuMjVjLTQuODMgMS42MTktOS43OTYgMy4wMDMtMTQuODc1IDQuMTU2LTI4LjQ2NSA2LjQ2My01Ni44MzkgNC41MDUtODIuNTMxLTQuMjVsMzcuMTI1LTY3LjEyNWguMDYzYTEyLjkxIDEyLjkxIDAgMCAxIDEwLjkwNi02LjgxMnoiIHN0cm9rZT0ibm9uZSIgc3Ryb2tlLXdpZHRoPSIuMjUiLz4mI3hhOzwvc3ZnPg==;fontColor=default;" parent="1" vertex="1">
          <mxGeometry x="716" y="297.24" width="57.68" height="54.8" as="geometry" />
        </mxCell>
        <mxCell id="aHKCgl6D7gJSmUVdyoO8-2" value="&lt;font style=&quot;font-size: 23px;&quot;&gt;&lt;b&gt;&lt;font style=&quot;font-size: 23px;&quot;&gt;Manage the deployment of applications in to Kubernetes&lt;br&gt;&lt;/font&gt;&lt;/b&gt;&lt;/font&gt;" style="rounded=1;whiteSpace=wrap;html=1;fillColor=#dae8fc;strokeColor=#6c8ebf;" parent="1" vertex="1">
          <mxGeometry x="122" y="59" width="594" height="60" as="geometry" />
        </mxCell>
        <mxCell id="aHKCgl6D7gJSmUVdyoO8-3" value="&lt;b&gt;As a DevOps Engineer, I have created a continuous delivery pipeline using which the application manifests/helm charts stored in the Git repository are deployed on the Kubernetes.&lt;/b&gt;" style="whiteSpace=wrap;html=1;aspect=fixed;fontSize=23;fillColor=#ffe6cc;strokeColor=#d79b00;" parent="1" vertex="1">
          <mxGeometry x="46" y="236.99999999999997" width="313" height="313" as="geometry" />
        </mxCell>
        <mxCell id="aHKCgl6D7gJSmUVdyoO8-10" value="" style="edgeStyle=orthogonalEdgeStyle;rounded=0;orthogonalLoop=1;jettySize=auto;html=1;fontSize=23;" parent="1" source="aHKCgl6D7gJSmUVdyoO8-4" target="aHKCgl6D7gJSmUVdyoO8-5" edge="1">
          <mxGeometry relative="1" as="geometry" />
        </mxCell>
        <mxCell id="aHKCgl6D7gJSmUVdyoO8-4" value="" style="shape=image;verticalLabelPosition=bottom;labelBackgroundColor=default;verticalAlign=top;aspect=fixed;imageAspect=0;image=data:image/jpeg,/9j/4AAQSkZJRgABAQAAAQABAAD/2wCEAAkGBwgHBgkIBwgKCgkLDRYPDQwMDRsUFRAWIB0iIiAdHx8kKDQsJCYxJx8fLT0tMTU3Ojo6Iys/RD84QzQ5OjcBCgoKDQwNGg8PGjclHyU3Nzc3Nzc3Nzc3Nzc3Nzc3Nzc3Nzc3Nzc3Nzc3Nzc3Nzc3Nzc3Nzc3Nzc3Nzc3Nzc3N//AABEIALoAhgMBIgACEQEDEQH/xAAcAAABBAMBAAAAAAAAAAAAAAAABAUGBwEDCAL/xABCEAABAwMCAwUEBggGAgMBAAABAgMEAAURBiESMUEHE1FhgRQicZEVMkKhscEjJDNSYnKishZDU8Lh8BeCJZLSCP/EABoBAAEFAQAAAAAAAAAAAAAAAAABAgMEBQb/xAApEQACAgEDAwMEAwEAAAAAAAAAAQIDEQQSMQUTISJBUTJxgbEzocE0/9oADAMBAAIRAxEAPwC8aKKKACiiigArVIkMxmVvSXUNNIGVLcUEpSPEk1GNda5gaSYS0pBl3N4fq8Js+8vOwJ54GfLJ6CoBc4VyvKUXLtBuS2Y599myxvdG3Li3/wC+IoAfNSdsNshrWxp+Mu5vpG7ueFlPnnmr0GPOoA9rvXGqJoi26Q8hazsxb2uHhHmrcgeZIFSawQZmqWlM2aM3YNNAlK3mEDvpg5EBR6ef41YFotVssEMRLXFQw2Bvwj3lnxUrmTUcrFEkjDJWDHZnqu4oDl2v/dFXNDj7sgj7wPvrYrslvbHvw9SpC/EJdaPzCjVrF5R5bCvJWo/aNQ96RJ20VM5E7T9LJ71iXInMo3/Rr9pGPNKve+VPule2Jp59MPVMX2NzPCZTYIQk/wAaTun7/Sp2FKByCfnTFqfStr1JHKZzKUSAPclNgBxHr1HkadG75Gur4J006282lxpaVoWOJKknIUPEGvdUVpbUlz7OL6NP6gUp20OHLbnRpJ+2j+HxT0/G8mnEPNJdaUlaFgKSpJyCD1qwvJE1g90UUUCBRRRQAUUUUAFIbxdIlotz86c8hplpJJKlYyegHmaWnlVDa8fma47RVWJl0NwbeSniP1EYALjh89+Ef8mgBqsOq4CbxO1DdGJNxv8AKdV7LGbbJDKemD9wxnYedLoJnan1PEt97jSYXtoLrvfgoU62kZKEAjbPL4Zp2YnQrA17FpuOhpA2cluDidePU56D7qboEuXO19ptb77jriHXFEqOcJ4Dn50kuBy5LgCW4rKI8dCW20JCUJSMBIHQVqJSltTji0obSMqWs4SkeJNZJJOTzNV9qNibrfU79gQ8uPY7Zw+1rSN3nSM8PhyPpzqnFbnllj6V4JTD1VYJ84QYV2jvyCcJSlX1j5HkfSneo1b9BabgOsPMW8l9hYcQ6t5ZVxDkSc1JaSW3Pgcs+4VlIyceNYoFNFKq7SNX6XvEZ+1pakuyI6z3MxsJ4UuDYjc5KTyPzp67CtTOyIz+nZbnF7MnvYhJ37sn3k+hxjyNTH6NgeyeyexR/Z+Hh7ruk8OKrmbZWtD6/sN2tnE3bpknuHGychsq90pzzwQrI/lqzXYuCCcHyXjRRRU5CFFFFABRRSS5z41sgvzproajsIK3FnoKANN8vMGxWx64XN9LMdobk7lR6JA6k+FUBpaeZE/U84Ehcnh4SeYStxRI+QFY1JfZ2v70p55S2LVHP6JnOyB4nxWfHoPvZ7EucqfNh6fhKlrlcIQACeFKSSCemN+ZNNUlnBNKmUa1N8Mk3XHpTloSN7TrgunPDDglX/stWB9wVUfucTVFgZTKvNtAiE4K0YPCfAlJ29aknZvLaOp5RQcpmwEKbPiUKOR/WKSx5i2hkfqRZla2WGWVOqZaQhTq+NwpGONWAMnzwBWyiqRaPSUlZxTbGnqN7uFsfwHGEoea2+s0oYz6KCh8qTap1ENM29E5UKRKQp0NrDI+oME8R8tsetV5qLXjd9uFslaWizBe46ylGUpIcbV9ZCgDuCQPhUkYZQyUsFufhSK0XJm6x3XmQpPdPuMLSrmFIUQfw++lv3Hrg5qBSZn+DdcOLkkps19Vxlf2WXwME+Wds/8ABpqjkVvBPVtOOMudyrhXwEJOM4ONqrrWtxF37O412CeB9iSyp1PVp1K+FaT8DmnzWF01db5DA0xa40yO4j9ItYKlIXnljjTtjG/xqHXOz3uFojUEq/KYbVNfafEVsbNq4hxHwGdtsnlzqSCSwxsnnwXrFdD8Zl1JyFoSoeozW6qQ7KNdO2uU1p2/un2ZwhMR5w/sieSCf3T08DV3A5q0V2mnhmaKKKBANUX2uald1BfW9N213MOKv9YKeS3RzyfBP4nyFWf2g6gGm9KTZ7awmSUd1Gz/AKqtk/Ln6VRWmIpajKmyCpbr5PvK5kdTnzO9R22bI5Lug0r1Nyj7e4pmMt2+yPMRxwhLRG3M55mpjoG0ridnPtdvkpiTZ3G49KQniWltKlABIO2cD7zUTlNl9hxo/bSU1KeyW6NzNPSdPSFcMiKtfuHmW15yR8FE/MVVqfoeTS6vDFkMcYwhFYH9RKgQo2pXjPsmoGy0jvDxOMFScoJOOR+JwaxoPReorTfIcu5GOzGipcBQlfEpfENxtyyd9zVhQLc1HtcKC6kPJjNtpSVDqgDB+O1Lqe7GZKggoooqIkA7gg7g7VrbYZaUVNtNoUeZSgCtlFAgU26hs0S/2l63zh+jc+qoDdtQ5KFbot2Ycvcu0hP6xHYbe3P1gsqG3wx99ebteLdZ2C/c5jUZA/fO5+CRufSnYaEymQ3SGoJVkuH+FNUr4JDeEwpStkvIJwlOfuHy+Lj2rOBOjJaD9Zx5pA+PEKZXg5r3U9nuEGA6izW5feKlvgILxCgoBI5kZSPv5Up7XpQMe0W1JyqTL7wp/hQBk/1CpHjcmEE5eCCXi2pmRAUjLzadtvrDwq2+yDV69QWUwLg7xXOCAlalc3W84Sr49D6HrVcU3W25O6T1hCuzBxGW4A+kci2SAsfn8RTdPZ52s1OraTCV0V9zpmitbbiHWkONq4kLSFJI6g0VcMApTtyuLk/UFqsLKvdZSHnE9ONZwn5JB+dNCkpbbQ02MJSABSa9SfpXtKvEskKQy6pCfLgwj8jShRyonzqjqpZkl8HT9Fq20yn8v+kYprlRZsOei6WV5TUtBz7qsEn8/MU6UVBCbi8o0b9PC+G2YI1tqrUEiLYUuRYL8pYaU+20pC8HrzOOR5fdVwwoKbbBjQ0urdDDSUd44cqWRtknxqhry47AuEG7MAlUZxJwOuDkCugESG5kRiWwQpp5AWgg9CM1ab3RTRy91LoudbMUU335U1u1vPWwBUpnDqEH/MCSCpHqMjyJB6V7s10i3m2sz4Kytp0cjsUK6pPmDtUePGSPIuVwpaU4tYSlIySelRi/6lmWXhmN2pdxtLiQpMmEviUj+ZPh4GpKrC21IUApB5pI2NQW6XCdoJ9RYhLmaecUVNpbOFQ1E5KB/B1GdhuPAU6KTEk2iPXrVei9RTGZs9q9xpTSC2HIhSk8Oc4JB3rbBk6Dh2x++sW2dPMd9DSjNPGviVkpIClYxsd6Uv6x7PbqA7c7QOMjm5CCj805py0xL0PdXHLZYrT3rbqg46FRFd2CkHClFWwIyQPjUr8LhjFzyN1u1Lf9bTExLJHNrtKCPaJKd1hP7qVcgT4DfzFNOqpTdw1stqPvFtLIYQc5977Rz18PSrB1hfY2lNPOPsIaQ6oFuKykBIKyPDwHM1VVlirjxS4+oqffVxuKVz38f+9ajnLEWy/0+l2Xr4Xl/wCDhTdfo4ftrhKcqbHGPTn91ONYUnjSU+IIqtB7ZJnR3VqytwfuWj2P3dV00REQ6viehExVknJwn6v9JFFQ7sDl9xPvdtWcJwh1I8wSk/7aK1cnDSTTwQfTrhkT7pLVup1ZWT5qUomnkUxaYHA5ObOxSUjHwKhT7WdqP5Gdd0z/AJY/n9hRXh51thsuOrCEDqaZHrrKnudza2iB1cPMeflTa6pWPCJdTrKtMszf4Ft6kxmobjLxytxOEoG5z41O+xzULc6zKsUhzMiHlTPEd1NE55/wk48hiq+hWBpJ72aovuE5x0/5rVcWXbXMauVneVHfbOQG9ik+I8vGtGOlcK8HKarqS1V2cYwdCEFJI8OtQ27RZWlLi9e7Owt+2yFcdxgN/ZPV5sePiOtJtL6l1bdbS1MFohXVskpUuLJDbqcEjC0HYHbpzpPqbXl6tqmYLOnnoNwe3R7YpK0FPIkcJ338cVX7cogpKWEuSa2e6wr3BRNtkhD7CxkFHTyI5g+VLFAKBCgFJPQjmK57lT75BuS7mwwm3SFbuKgpKUKPmnJFSeydpGppZ9mbt0SfICc4TltavTO/pQ6s/Sx0nKDxNYLLXp2xOOh1yy21TnRSojZPzxXm6XW0aZgl6WtiI19lptABX5BI51B5957QZUV11UOHZoyEkuPPkJ4R48SicfKq59muV6muOuPmW5n3pLq1FJ+BIzj0oUPHqfgIqU5bYRyxz1VeLjq24uXEMrRFjjgYazngHU+aj1x4DwrdaLqia2G3MJfA3HRXwpLGXMs0tqNLWh1lwe7wHYfDIFYudq4z7ZbjhQ3UgbEEdR5+VWJUQtr9IUay7Q3uM190P1FNVkuRmJU09s8gZyB9YU61mSi4PDOuouhdBThwzx2fTfo3W9wOSELjObD+dsj8TRTfp9lcnWExDI37hZ28lNiitKL9KOMv/ll9w7j6P1jfIRGOGQ7j4cZI+40quEkxIbj6U5UkbfHOKcO1KGbP2ke1kcLM5CHAcbZxwK+8A+tIpbPtEV1jqpOAfOqt6xYmzf6ZY5aSUY8oYIcKXeHA9LdUGQdvP4D86fEKiQW+6YSMDon8zTXpeSR30RZwUnjAPToRW+QngeWnwNatajGOYnJXznOx72bXpjrmQPcT5c6Tczk5Pxoop+SLARlyYMj2q1y3oMgf5jCiM/EcjSlN1ul31Ey/epHtLzUVSG14A90HwG2dzSavAdEabGkH6oVwKPkraq98MweC9oLdmpg5cZQ/94v96mq72+K40X0sPB4b8UdI3PmKc+Q5bU2XC5rQl5FvbU+60kqcUkZS2PE1k1KW70nZ62VKqfda/YimJdesLMh64ynxsotPPKUjOccjT+woiKhJbab2HCls7AeHIU+WPQ+k/wDDX0zPuUh6EWQtx15zgQ0TscADnnoc00XrStzs13t0OJd0vxrihxcZx1vJShASd8c8hQxjFWrKJTWEYml6hTRJvbhYS8DJqBI/U19e/A+Yz+VDTq2l5SfIjpW3UFpultMeRNcakxUrx3jKeHhJ23FI5DgbYU5n7JNW9PB1wwzJ6lqIaq/uV8M9WJPezpsoABJVwjHmc0+fHlSCyMdxbWgRgr98/E/8UonPCPDedP2UEjzPSsy177Gdboq1p9Ks/GR17HIX0jq+7ySCQ3HKc/zOA/7KKk/YJbTHsM+5rHvTJHAhXilAx/cVVitFLCwcjOe6TfyKe3KxG4abZurKf0ttc4lnHNpWyvkeE+hqt7XK9rhNukgrAwv4iujZkZmZEeiyUBxl5BbcQrkpJGCK5ruFtf0dqiTZ5RJjFXEw4rktB+qr8j5iob4bo+PY0Omans3YfDG+SPo/ULbo/ZukH57H796crinD+fEUn1M1xQ23kfWaWN/j/wBFKJCg9EjPD7Sd6saSe+vBT6vR2tS8cMS0dKKKsGYeY3G7DTIVjClqGPWsPNB5otq5H7qURgE2dvH+or+41qox4Fzhmu3Qbhebm1b1zFcBTxOFH2ED5b1ZcC3RLdDESKylLIHvDmVbfa8TVXhMuJLMy3SFNPHmAef5Y8qkdq10AQzeoqm1Dbv29wfinp6UyCjD2Jbp2W4e7JIdAPp0/qG46ZmNB+2zGi/FaUAoKPVGDsc8viPOl+o7gbxqHTMswZEL/wCPkuGNIRwuNgqQkAjpyqOakksyoUS/WaS27ItbofBQrfgHMHw9fOlOq9Xx5tzTdIRS44bayzHGc4W4SpWf5QATTGkpjlJyr88jTrC4e2z0wGD+rxlcbu/1nOg9PxPlUbljvnWIqebyxn4UobQUowTxKOSpRO5UeZNa7Yttc5+a+tKGmhwoKvHrRdPbBv3H6KlWXxi+B/ACQANgNhTPf1uSHI1tjDiekOJSE+JJwkfMivT1/jJWEMtuPKJwkDbi/OnHs2ft6O0BiRqVS4z4P6q262QA8rZPFn6uByz1IrOpqe7czpeo6+rtdup5bL40zaG7Dp+Ba2txGZSgq/eV9o+pyaKdelFXTnDNQvtP0YnVdoC4qUpukUFUZZ+2OqD5HG3gcVNKKAOVRMU5b5dvnJU1KZBBSsYV7vMHzBpVAX3thZJ5pJHyJq1u1Ls8bviHb1aeFq5tN5dQfqyEgH5K8+vI1UliX3ljdxy48j1xTqIqMml7i6y6V0IuXKPdN8ucGnQG1pXthSPA+NOHwreiSpIwW21DzTVh+SkmkxqYvDaYTcQtrW/xEgJ3zvnYc6c4lr1HOGYenLgsdCtlSP7gKtPsQebctF2bS2lK2pxyQBnCkpIFWTioHORZUI84OdGtFa2eAKbCUA/6jiB/urLvZ7rZwEOWdlQ83m//ANV0XRSbmxVFI5cn6G1VbEqdk2aShASeJbSkqwOueEnamaIxM4O/jsqUnGywNh44rqu9p44vAeSsjHoa5xtckRreiOlBPdlSNz4GlgssSyW2Jpslg1DqOHKkWpn2hmOcO4cSk5xnAHXanzs87PG9V29y53G5qiwG1kcLOO8OOZJVskehqR//AM/ygiTfLeSP8t0D4EpP5U/dn8OOxftZWF5pDkZE4Od0sZSUuJBxjw2pryPXjgUaKh6RjyVDSdrXNLJ4F3Io4kA45BxXM/y5rHbJp+Pc9KyLm22lM63p79LyB73APrDPhjf0re5OgsXDgOuvZkJPCIrTbCW0Y6AlJ/GpPJEefYpDaZKJbL7Cmi6FJUFhQI6bdaQBv7Pr2b/pG3TnVJL/AHfdv4/1E7K+eM+tYqGdgbrrMK9WtwkoiShw56Egg/20UAWvRRRQBrf/AGDn8p/CuV9OkN2uQ1kZCkjhPOuqyAQQeRqjNU9kV4iSn5mnnm5cdS1LDBVwOoyc4B5K8OlOjLa8jZx3LBEaKQqlSYUlcS5R3GH0HCkLQUrHxB/GlTUhp0e44k+Wd6nUkys4SRY3YfJ4LvfIZ+22y8PMjiSf9tXBVA9ls32PtDhtqPuTozrHP7QHGP7SPWr+qCXLLMfpQUUUU0cIbqMtt/zH8K5pSOF6SgjHDJdTj/3NdL3X9ij+audJlnvcm93oWqAp6OxNf43Nvc94qxufDFOg8MbOO5YHDsluSLVreSXVtobdiupUpxQSMhSSNz609w9c2W19oWoZ79xQI0ttgNOsgrSpSU4PLPjTN2X6IXquf9K3FDDloYdKHWlE8TrgSCBjHL3hk58sVeLGnLJGYLLFogtt4xwpjp5fKkY5eERGJ2i2y4OBEBE+ZvjLVvWoA/HhpzvmpY9rsTs+Ye5QEkoaWjgWtfRIT4k00/8AiaHHKxadQ32A0tRV3LUhPdpyeQHCPzrEPsgsyZSJN2uV1uqkHPBKfHCfjtnHlnFIBnsTtr8fTsq7SUlLl2kmQkfwch6E5NFWGy0hlpDTKEobQkJShIwEgcgKxQBsooooAKwRms0UANV+07aNQRixeILclONlHZafgobj0NVzdOxGC4sm0Xd+OOiH0B0D1GDVt0UAc8XXS0zs51Hp64y5qJTKpWe8bbKQ3ggEHJP2VE+hroZKgoZG455qCdtNp+k9Cy3EI4nISkyBgb8IOF/0kn0p80FdvprSFqnKVxOLYSl05+2n3VfeDQBIKKKKAElyH6tnwUDUC0chKbhqhtYyPpZRIPgWm6sCaniir+Gapx3V8HSOp9St3Fp9z2mS280G8Y/ZgHOT8KBR57D1GF/iOxrJ4olwK0A/ukcIP9Aq0qqTsgbm3DVV91CuC9FgzEAI7z7Ssg7eOAOfnVt0CBRRRQAUUUUAFFFFABRRRQAUUUUAaZcduXFejPAFt1BQoeIIwaonSmt3uzp6fpy6QHJDTEtZQpCwFDkNgcZBxn1q/Ka7zb4U2MoTYceQOE/tmkr/ABFApEIfbHpV5IMgzop6hyMVY/8Apml3/lXR3CSLoo+Xs7mT/TVXa4tduhvqEOBFYGeTTKU9PIVA4wCnkBQBBxkHrQBfE/te04EqTHdlPDlhqMoZ9VYqL6Lmt6s7VRdolucMNEdSH++AUEHhwCemeWB8a2aJsdolpSqVaoLx4ebkdCvxFXDbIkaHCbbhx2mEbe60gJHyFACxI4RgAADkBWaKKBAooooAKKKKAP/Z;" parent="1" vertex="1">
          <mxGeometry x="488" y="285.64" width="56.19" height="78" as="geometry" />
        </mxCell>
        <mxCell id="aHKCgl6D7gJSmUVdyoO8-11" value="" style="edgeStyle=orthogonalEdgeStyle;rounded=0;orthogonalLoop=1;jettySize=auto;html=1;fontSize=23;" parent="1" source="aHKCgl6D7gJSmUVdyoO8-5" target="aHKCgl6D7gJSmUVdyoO8-1" edge="1">
          <mxGeometry relative="1" as="geometry" />
        </mxCell>
        <mxCell id="aHKCgl6D7gJSmUVdyoO8-5" value="" style="shape=image;verticalLabelPosition=bottom;labelBackgroundColor=default;verticalAlign=top;aspect=fixed;imageAspect=0;image=data:image/png,iVBORw0KGgoAAAANSUhEUgAAAJcAAAC6CAMAAACUcy+jAAAAZlBMVEUaGRj///8AAAAYFxb39/fg4ODp6enW1taWlpbt7e0VFBPS0tLy8vKFhYVzcnK4uLhfX14zMjGMjIxtbW0LCghYWFigoKBISEh8fHzGxsbAwMCvr6+oqKhkZGQ+Pj4sLCxPT08lJSWPUXLUAAAMbklEQVR4nO2d2YKrqhJAtZwiMZqBxJjB4f9/8qAxUigaKJO+92HXyzndvdssoaiJgnbcdeLHQbDNHptrenoKOV2Pl3sRBGHir3uus+J3g9vjeMoZ9MI5f/8vlPvrJYtWsJG5it25dFoa5kzFaxH5oT7dkz/kSoJ73hF5GiQkrB3K5hiFf8IVXE6CaZkIwwHkm+LnXMXzAKCbugXh0OQXS12z4goezBqqE0+o29VqGVhwBZsDCapHE2S3H3D5u4OFVunJvHP0Za7wQpvAERmHvSGZGVeWf4GqE+AbI7NhwhWf+boZxMKgyr7ClYgp/BrVi8xgMj9yRXv4YNbtBarHWq579d3BegmHa7yGK0y/pe9jAWdL54rOvxisl3B+p3IVzfeW4VQY39G47r+aw7fAeV7JZrn8zffX4RRs1sbOcl1/jyXAmrkRm+FKTr/TeCycBTZc/vVvsMSIlXowPVf6F5P4Es61U6nl+rPR6sAanfLruC6/NFtTgVozYhqun9utCdjZhGv7d7o1gE0t/4QrOJBHy2Me8ZWmvnLMFe+pOi/SiqZhtN9mMI4uxlw7KhaDzTZJih1NC7iTLHLdyFjvqbjQngDXJS66csGlfwTVVcBjnssne0VWDsbx5pBmklXRLNedbCLwNOQ0s6xaMYWLblABed87cdDhPsOVkt0iL7/weuwQarkKmmK0Akqlhmpr4KjjSp704cqVkCAiqqmHrKvkyujBDWwwlutTFQJqDRc9KWPVyIvcqY+SAzZwPVYM11PFcpOcuLD5ecyVlPSga+J03Q3xJT2WjbioRkcIm8ZwPvVpkPoKV3ymx86gKTSQHdp77HuuYsVwVZpMq6B6tLeu9lwrCjcoCA6GIIo+/uAjrpiO5TVyk+Uq7Rh5efdG/8V1pHPJpS3MQz1saYTU9c1yf+DyqfbGUbReeAw5dlSb7zm3gev2acduXhgMJML9IF0L102ks3IakWsMGGMopyeGhyJmCnuuuKa7Ri6j3zbjQLNKTmE6E9ZybVcM11Vu3rUmi3E5kdS3hbTnonoz7M/ephn5SupjO5VtuVZEOKUcrpfr6V72JduGavPDjitZMY0XSVF1toYdpMJRA+B2LTkrFFQEvnK43nk2RiU+mD87Lnp1EE3asKb5WVYaiArC8rjlIrtYD+ScyYAEaT4xqGtdruMG5EgVTnJoasm1H75JLXcIK+i4BXXZ4FIHXjsgaYmZpFB8hx6RsFICYE+G0lOiqYCT79CtKnLSSY0mjNdoekm6y+vYoW9tgCxvZxyNi8elE6BpPnMCJ6EuR5Q1jhLsIalxqTUUCJywpHLJWomIcPBPGJfRDk1LYOuMnmksvJYfPq6pIpsfkR4PmRNQnRiqh44ny5NBLM2bwIXKhbPGafKJ5jgjjdfOITpXXCuZJtf8JH9KcSeQOsRoAhdUH2y8dBhKKikFfb53aOU4taB6K8cPQelIQigJ8NqhWT5Qe5LCevThvJRGl6D5LHdI7nFUUG0/fGQPkOYTyq1ULlw57uXuKEqGJppQUGYlictrNE0/gdomhhaG/UcILop+8f0US3jJJ54wtDOTWIeHYh4p6xH0DZ/JBRl+hlTQOjwU65FgvzQF1V4y1EqKlqx1eY0/KfYeuUY/VbcUAll4hL2Mdmw1X9h7e//IGqnSMYOjsgMcD60qOFuynRThH+25cFeBWGrjZqnLey6R5tvWUNp4QtvYvyAeKgq67S/DaF+hOLxeFUc7lk5SxF/W8Sp2ja8IhzO1gv9uS0R6GNglRlA4yd6SCweEfVzPuLqb77/aOPmTqvkivrfNh1DlzY0GgzlRsrY04XlyxiObT2nzIdvMALtG5GAgV5Vs2/bj4n1JG3XheWybb3tcfn6CVxnnaujj5+AxD6WYFh8jEj3b+gTODVWTLCyZclDC3wDDmm9Rn+7qE3b1HNx5NNJlD57qCY4bAFq7Fk5SvI5l/QsXVKcBMuRqA3tUItO2NW43eNW/rOJcrMmaBQOOasniFKVNxu/f1wutNFIqsrawwVCq3SnZg+Ak260wx2rTFxVU3RvXzYsH6VwLr98YKnL7blb1e9x44c/p8VynrHk83dfvzbet+F6ORTzr76GaOY4WmQ3YsN9h7COw8ixECHykZIOYrbAuPmq5QkOTxyqkOovvDlftuUezfU4oXLv9R6z1HxoIZlr+TRIjfnjvP5q23gGKGT5tEwPXnSsxSQrRfq1vNJFow0BY8k9vzplGyfzPwbHnyf1ts4nEtRKDJc/GrZ9mH4T7AYwSPFxQTUwG2NMc39h+LLf2ns683wS7RsOkE8qxJfvcidrv4hj353gOihVM24K4Mz6790kBRv05ycd2bdxeGhtXtMbBohsuR6FDMjz0f31SGJwk2mSDcFKVbNmEjfu/PvbL4azRt0rtIFf8eLX0OXJraSjNfDB5uPlMH+HMCscGplh0RbKwZtiPyXDwYts2I4LFt5J9WI+afszlsBXXSnzrPTJvyLyPi0Ot7V9dLM+y53H3FkJbhAdwD+NwWy4uZIZqsqb90YDEGqv7TDjwDwfT8aTgkiS9QdpEvE8uSGmg/FL//TdE2UMZnVf4X2LNn1egn+9YL8yZP9+x5rDVWhl1DX/r/NBqrNRd4vrbo49SOCyftzIIeH4hjI1vMpie5zOtInxT+OQeg/+P84/phEKzBZXZ7jSsxjI6L7qmb5SGZXi+ds3BK4KYn0du850/0zGozM9v008m2WOV+rtOZrZe/d/GPIPwZuYKltkt4T85ig8Hy/sUxIitaMo3xqrnSrFL93U8fhwmelDP33C1eL/JT+6oeQtjmjqUEZcb5b8D47pjWoZcbnz62f05sHwX0sf7hppfDBmbKVibc7nb8w/uZ2Ifr7T6fJ+Vv4HvkjHYz5oHCy4RKu6/eP+XB+WiwltwuX625sY7RQCOnwfLlEsszA3/zv1yZyMqi/v4kt3qMQN+Wr5ci8IlrOyqMfMA0l/cX9hKfLG/hPIFxcVYBT+677GT7HSwNhsCar+xvPDU/j7R6L4HMK78egyg2hTW17BS7l/140ftmdy/ysWsN7uIcjcs9b5aP9udyraoqVe3Fgmqc3oxNAtf42rRgiI7Pit5uy9jww2/vL4+btsPdwH+iOsFl8RB8dhcn+e8PBzKep8eLwJo7XXIq7l+Jf+47OQfl53847KTf1x28o/LTv5x2ck/LjsZuDQx3HJYFwZBuCLw00vyfurQnzMtdd5yWXUJnmpPdnh81nmen59XJVJOn0rtIT11kqZ3NUx8PKfn2zqI6zlvn3pKbz1XWE73jk6odrYFwI/O2j/oUFVVI/6L2/Uq5YaySET/nHd/PkPdJN7pdoTc0BEZYHU4VA2HS891Az5p002BD9cCb4EjLh/gfI/CMIhulx3+tcOYKytauYgMBU/5DjQH3JIcDsdt8Hpq1HOVUE3qnSnIFkGV6wa6A306rp6mOCgnE7VcGTSoWvfiCqDewnmU56WQD4dfVK5srgd6wvXekroqaqLleqDunDfXVTyvGl97lsLlAVBouAIY3XRnwIWL4jNcOfqIjissxbzc4aT+w1SMfQqvg7Iql/i2/qL4Oa6gVK7l1HIVDkP1no7r0nYbBtVoT77lCvPXoY0Rl38Va2w33TeccEVJLCQ4qFfjabncjZiFsJOeK3l2By13o8lpudwt77474hKqX4uk+jjW/jEXK1sRKXmpvLKeqzVM0Ahpx/bV5951ON24qvkdl5j2Vu8mXG6cCePVjGZzzDW0ZzGlBK3nupfvf31/cZ2g6eqetXoq+8XVXqAea7jc7q9ngPorc3Zie1ZW8Iyd4Km0vt35Drg9odoKNbuqyt1xxbVQsUjH5fqZeEVcnJxdj7HiCXRcQpnwunM6rfeTFJzMVa1yz+VGwi3oubpzq7kJlxj1s3yAjitUTxM7rl93ll7o0TFVrPLwlfCGmxmukYmd59p95GoAN1M7bva6oMwVc1JxpuMSzwFvhktYQ7RYZrn8Er+ydh73iktwxD/qvw4aUMZScgkVY4ofOr4V9FYpWjHh6pmFveNoNHaTmz7dVp2Y7KVOnIDL7swz4BdBsxqI0MPHPxEmYn/d7cV/D/jZE/vVBkNVJcyFctR1h5o75feP7dNOu+tJLPOjc4Fm+Im/wVrwRH2bQo0QV7HZ95ap3CgGrFEUNB7+btlB/ZNID8SF7Mz99P6bZ+XDCQPsTvAXYRDrf+B28W6RZUU0cpJBEKtf9hKqyukHUhLl+9GtfWoQ+/8BnNCuUDwLvOMAAAAASUVORK5CYII=;" parent="1" vertex="1">
          <mxGeometry x="598" y="292" width="53" height="65.28" as="geometry" />
        </mxCell>
        <mxCell id="aHKCgl6D7gJSmUVdyoO8-9" value="" style="edgeStyle=orthogonalEdgeStyle;rounded=0;orthogonalLoop=1;jettySize=auto;html=1;fontSize=23;" parent="1" source="aHKCgl6D7gJSmUVdyoO8-6" target="aHKCgl6D7gJSmUVdyoO8-4" edge="1">
          <mxGeometry relative="1" as="geometry" />
        </mxCell>
        <mxCell id="aHKCgl6D7gJSmUVdyoO8-12" value="" style="edgeStyle=orthogonalEdgeStyle;rounded=0;orthogonalLoop=1;jettySize=auto;html=1;fontSize=23;" parent="1" source="aHKCgl6D7gJSmUVdyoO8-6" target="aHKCgl6D7gJSmUVdyoO8-7" edge="1">
          <mxGeometry relative="1" as="geometry" />
        </mxCell>
        <mxCell id="aHKCgl6D7gJSmUVdyoO8-6" value="" style="shape=image;verticalLabelPosition=bottom;labelBackgroundColor=default;verticalAlign=top;aspect=fixed;imageAspect=0;image=data:image/png,iVBORw0KGgoAAAANSUhEUgAAALoAAAC6CAMAAAAu0KfDAAAAdVBMVEX////wUDPwTC3vPRTyblr84t/7zsbwTjDwSivwRiTwSSj/+/r+9PP+9/bwRB/4vrb4ta30iXn4urL2oJP0jn/1k4X97uz60cvzgnD73Nj2pJnvOgz2mozzd2TxX0X719LxWT75xr/uLQDxaVLxZEz3q6HzfGqzWgBKAAAJWUlEQVR4nNWdbXeiMBCFDWgDiAi+pL4Xqvb//8TFrq0RknAnBKH3y56zpwefZu9MZibBHY26UbzdjRlj+WY+mXb0Ed1oWhyTJCjRWeSz5bZvHILiXRSyH3nJ5a1vIFhilXAmKcznfSOBitfhE3m58OxvsItsz6rykkXfWIDijV8jL9nDtG+wRsUrFXnJHg3dM2IVKslvfh+2Z0RWjdC/wq6KUDlWh+sZM/ktVoe67vEqMZKX7N4w1z1eR1qfP/w+RHaxaVrzb/ZgePk9hshv+X1ofhdrc4RK7APLM6IxQiV2b0jrPlvr9lAl+4BiVWTqukXLPpz8XvgeCb2M1aHkmdkuaMzo1XUfimemO33VpWEfjt93NLcPin2ZUNd9OPl96VFjdTA933Tn/eVYpaH36PdYVP6CHqu8n70pzth7lZ2cI3vZV8tuLjrV2ANyrL7eM+I2bwnzyhD3L8TqvVaMLh8V9iVe/d7ZXxyrIrsTKjzjU9c9eKXfpW6uzr5s7q4r7C+sI5/mijX26YDrSLF+8nOUV/1OZ39RzxdXJ6J/JlYV3VyUt4/VF3hGbBRTi7Aeq7f8zr2Ao7+Cl3Qdq7NM6QVFjoySxDtd8uh+CNnM3vFsSeimFtGp4vdZuiw+tpPtR7E87aHqwONdeqYWoRJ7LVZ/Dqmn8YJBYdtlrBrnLfVYfWh24Ihrujvni82T/7rfJS1yxDRd1cBCczb3q7C6N8kqGJJruum1gblize+y0k8AvRO/iwzoPGt5RtYGal3d93zYmYXR75MIy5GO68iGCJXY82qv/avpAZsYuPV7Y4Q+PpdNtE95hyLVbT0T45P/cD3TPmZyjNDf35Xfm89DHzIZdXpAn+PqfFUob4moxVlheNIVXHVX80hNrahBN+1KoxQv4l3UkZVurhX6gtB/eEFbz+jvt6jRa7M8WSlWud/ZW+6rMfFsjhvvGtFa1nY5sumWSF3JTn+XVGClgMRu73fqmpeKjrH2cdsLxTCt2Ak70UOJ/hYs/Xm2PZ+hmzOhZ4ZHwvXEL7tVrIK1Yk2fpsvHB/I5n8XeFK+oEXpXdNTWjqVqd2ab2anrLmzJywrsoI/UssEmzyOJNbCdz/+Le0vDZfsYrNoldpLf63ehSexhZmCfEupQOjulVlQq8d8MplnR/Y7G6oy+E9U+zF/pg3VKj1WwjhTr1uSMBWep0fuo5MvS753kGWKtqEMfS+jFpdKwWuyrQM8Xk+pzDP3tc1xht4jVxp5POflvje4n5+oeS4/VhlkqekeUis7CcfVcG7gBXGE3zpYcuUWBzsJz1e/0WDX0fGIFt+xk9Dr7jLxO+r1JZNS6joLOoqpnRgdyDaw5X6V3czT0ut9t9lXVujslV6KzpMa+9ngZfmGIDYGZOs+0qRVR9HLda7Hq+/kxW32dfB+Ls/reFJP/7WzQWVSL1flWxLNZLCbp+RPququx2rpWBNHLPKPv/z7G0BWm5/xuMbWwRFfEqoRxZdAZpTTjwN9WaI9ez++y5tgZ5W/P5zhCG9DLPGNgL6ArHT9+n+7c7UQIej3PyNphZ5T/j8YLah3UFp0lF73fp9hg8tt28dG9XRrQjbH6ht2UvM1lt66KxSeZ0Vly1qKLDNqbglyMdr2gr/RuX2A3l/xiNCZOjjE1oRtOyz4uUEGTrEfusW8yo/PckGMEdrzKL72gB2fTSBUzO2O9oJunwWCvxke5e27WjG6Y641WUPTx02jjrB+VZUb3LqZVx4iizWjuumj8VqswhVbdT0cTRnxHwQG6MTm+n5C8zr2Jxd1hF+iGw7IUS+u3Gf720kER04DOE+3hAVYIeP9P9N+g+t4pelk96dALJPb4T5M3d2/3JnSuu2glxsiih8ufy07zxDV7EzqLMnV+hCZi++VjX1iEjtkb0bl3UN0SS5Gc4R/kSEnh+ZMjdMZDhd2Rgpcn6+e92LHfm9EZ+xxXPCPWQJfMo9qx7MIpO4LOQpZKX8Um5ieEPFQcKC9cxiqEzrzwvCy2YjYT22J3jJDcsleGyNxhrGLo5c+F7DI+HseXPIIGE/ul+grogvp6dHv079doSmFjAB4q1/x73Z35HUcnqIxQ/bXbOfVVV526QOeJ6cqHs/zeBXqyNn8zpKM80wH6fm3qCr894yRWnaOXbtH7/HfdXcSqa3RjhErr7iC/u0b3d01uua97+1h1jO43ROhDaet1d4rO/cYIfajt3hR4cifxhr36qCVXVVwdsfNg/HyNPT1TbzfKT6tXuQ3s9vnd8w7V5m2S2Z/6yN0cyG7rd+5d66tkdSv7P7m24tLLNlaTpeppsy+rSRUpQh+y83u40TjT5hICuBMp2Dmdnfu6IW5BX3ZibpFlMeNI1rqHzb7IdvctfG7P7uvHz3NqhtwbXuhrFjXPhF/6qJqcSYeF3Lf0+S87LVaTq/5RM9I1CusIldgpPR/3TK8PUr5dq6zPbbLisyh1ZMOLbIRFSA4uvuefsDfxk+n9GMKbj36rCH0I7/nMq74A31DGujlMcM/HuQuv88B6J6oLzpGmtyrgF5R9BxEqsYM1cLhq/1q4bq5oK3C2xLn+HBp7GZ8njiL0oQVWi/lax0yhS9+Giai9sH2Vh7pP3iL3AMndHMgO+d1XdhqloOtxbesWnaA6kmuu9l+hU8UO3HJnR9Y9UH7TSgoM/3mb+rxJkN+jvKj6dXYF2jsHtaKRHckzgb97TpHbFXY21yU5WEdy/5j+dkvT7TVHItRNrWhSCuWZyDtn6dv7+0dx3VwCpDtq181hwuoZHkTfrWj5J/TjXWXFCrv7OyhlrfgKcqfnq3e56OYwuTzXvsnvZPdXy+kdlA5qRZMWrs6Gb+Qd7qEqOYvVjmpFI7sjv7vt5l7J7rqbw+Tgrht3NW8hs1vM35/Ju+jmMLWM1Y6r3Ab2Vp555U5UV5tz7VfUiiZZn6/yvekrcF7Dbuf3Xn3eir3s5vpe85tsYrXfCH2IXkfi91u6FnFftTw970Ykv/dQK5pE6fle181hwvN7P7WiSeAZ5Yu7OUwp0vPV3lYYhoq8cco1sAh9qJnd/n5L1yo8M3t3k//2MrMPL7fIMnimx24Ok5Z9EFWuWYXm/6Ewv60wDKn9Ppxa0STVuvffzWF6q/q9xX3FV6t4PvfyooHViia9nx//1RBPWDr03CJrsjv5t7NSHvleZrpUNUBNRbG+MH7ayO9lutU/Mb6jwROik1wAAAAASUVORK5CYII=;" parent="1" vertex="1">
          <mxGeometry x="397" y="303.64" width="42" height="42" as="geometry" />
        </mxCell>
        <mxCell id="aHKCgl6D7gJSmUVdyoO8-7" value="" style="shape=image;verticalLabelPosition=bottom;labelBackgroundColor=default;verticalAlign=top;aspect=fixed;imageAspect=0;image=https://helm.sh/img/helm.svg;" parent="1" vertex="1">
          <mxGeometry x="396" y="390" width="44" height="50.8" as="geometry" />
        </mxCell>
        <mxCell id="aHKCgl6D7gJSmUVdyoO8-13" value="&lt;b&gt;BEGINNER&lt;/b&gt;" style="rounded=1;whiteSpace=wrap;html=1;fontSize=23;fillColor=#f5f5f5;fontColor=#333333;strokeColor=#666666;" parent="1" vertex="1">
          <mxGeometry x="415.00000000000006" y="165" width="245.81" height="60" as="geometry" />
        </mxCell>
        <mxCell id="6c4D-610fqlW7kFWhaeb-1" value="&lt;b&gt;As a DevOps Engineer, I have created a continuous delivery pipeline using which the application manifests/helm charts stored in the Git repository are deployed on the Kubernetes.&lt;/b&gt;" style="whiteSpace=wrap;html=1;aspect=fixed;fontSize=23;fillColor=#ffe6cc;strokeColor=#d79b00;" vertex="1" parent="1">
          <mxGeometry x="41" y="721" width="313" height="313" as="geometry" />
        </mxCell>
        <mxCell id="6c4D-610fqlW7kFWhaeb-3" value="&lt;b&gt;Experienced&lt;/b&gt;" style="rounded=1;whiteSpace=wrap;html=1;fontSize=23;fillColor=#f5f5f5;fontColor=#333333;strokeColor=#666666;" vertex="1" parent="1">
          <mxGeometry x="419.00000000000006" y="656" width="245.81" height="60" as="geometry" />
        </mxCell>
        <mxCell id="6c4D-610fqlW7kFWhaeb-13" value="" style="edgeStyle=orthogonalEdgeStyle;rounded=0;orthogonalLoop=1;jettySize=auto;html=1;fontSize=23;" edge="1" parent="1" source="6c4D-610fqlW7kFWhaeb-5" target="6c4D-610fqlW7kFWhaeb-12">
          <mxGeometry relative="1" as="geometry" />
        </mxCell>
        <mxCell id="6c4D-610fqlW7kFWhaeb-5" value="" style="shape=image;verticalLabelPosition=bottom;labelBackgroundColor=default;verticalAlign=top;aspect=fixed;imageAspect=0;image=data:image/png,iVBORw0KGgoAAAANSUhEUgAAALoAAAC6CAMAAAAu0KfDAAAAdVBMVEX////wUDPwTC3vPRTyblr84t/7zsbwTjDwSivwRiTwSSj/+/r+9PP+9/bwRB/4vrb4ta30iXn4urL2oJP0jn/1k4X97uz60cvzgnD73Nj2pJnvOgz2mozzd2TxX0X719LxWT75xr/uLQDxaVLxZEz3q6HzfGqzWgBKAAAJWUlEQVR4nNWdbXeiMBCFDWgDiAi+pL4Xqvb//8TFrq0RknAnBKH3y56zpwefZu9MZibBHY26UbzdjRlj+WY+mXb0Ed1oWhyTJCjRWeSz5bZvHILiXRSyH3nJ5a1vIFhilXAmKcznfSOBitfhE3m58OxvsItsz6rykkXfWIDijV8jL9nDtG+wRsUrFXnJHg3dM2IVKslvfh+2Z0RWjdC/wq6KUDlWh+sZM/ktVoe67vEqMZKX7N4w1z1eR1qfP/w+RHaxaVrzb/ZgePk9hshv+X1ofhdrc4RK7APLM6IxQiV2b0jrPlvr9lAl+4BiVWTqukXLPpz8XvgeCb2M1aHkmdkuaMzo1XUfimemO33VpWEfjt93NLcPin2ZUNd9OPl96VFjdTA933Tn/eVYpaH36PdYVP6CHqu8n70pzth7lZ2cI3vZV8tuLjrV2ANyrL7eM+I2bwnzyhD3L8TqvVaMLh8V9iVe/d7ZXxyrIrsTKjzjU9c9eKXfpW6uzr5s7q4r7C+sI5/mijX26YDrSLF+8nOUV/1OZ39RzxdXJ6J/JlYV3VyUt4/VF3hGbBRTi7Aeq7f8zr2Ao7+Cl3Qdq7NM6QVFjoySxDtd8uh+CNnM3vFsSeimFtGp4vdZuiw+tpPtR7E87aHqwONdeqYWoRJ7LVZ/Dqmn8YJBYdtlrBrnLfVYfWh24Ihrujvni82T/7rfJS1yxDRd1cBCczb3q7C6N8kqGJJruum1gblize+y0k8AvRO/iwzoPGt5RtYGal3d93zYmYXR75MIy5GO68iGCJXY82qv/avpAZsYuPV7Y4Q+PpdNtE95hyLVbT0T45P/cD3TPmZyjNDf35Xfm89DHzIZdXpAn+PqfFUob4moxVlheNIVXHVX80hNrahBN+1KoxQv4l3UkZVurhX6gtB/eEFbz+jvt6jRa7M8WSlWud/ZW+6rMfFsjhvvGtFa1nY5sumWSF3JTn+XVGClgMRu73fqmpeKjrH2cdsLxTCt2Ak70UOJ/hYs/Xm2PZ+hmzOhZ4ZHwvXEL7tVrIK1Yk2fpsvHB/I5n8XeFK+oEXpXdNTWjqVqd2ab2anrLmzJywrsoI/UssEmzyOJNbCdz/+Le0vDZfsYrNoldpLf63ehSexhZmCfEupQOjulVlQq8d8MplnR/Y7G6oy+E9U+zF/pg3VKj1WwjhTr1uSMBWep0fuo5MvS753kGWKtqEMfS+jFpdKwWuyrQM8Xk+pzDP3tc1xht4jVxp5POflvje4n5+oeS4/VhlkqekeUis7CcfVcG7gBXGE3zpYcuUWBzsJz1e/0WDX0fGIFt+xk9Dr7jLxO+r1JZNS6joLOoqpnRgdyDaw5X6V3czT0ut9t9lXVujslV6KzpMa+9ngZfmGIDYGZOs+0qRVR9HLda7Hq+/kxW32dfB+Ls/reFJP/7WzQWVSL1flWxLNZLCbp+RPququx2rpWBNHLPKPv/z7G0BWm5/xuMbWwRFfEqoRxZdAZpTTjwN9WaI9ez++y5tgZ5W/P5zhCG9DLPGNgL6ArHT9+n+7c7UQIej3PyNphZ5T/j8YLah3UFp0lF73fp9hg8tt28dG9XRrQjbH6ht2UvM1lt66KxSeZ0Vly1qKLDNqbglyMdr2gr/RuX2A3l/xiNCZOjjE1oRtOyz4uUEGTrEfusW8yo/PckGMEdrzKL72gB2fTSBUzO2O9oJunwWCvxke5e27WjG6Y641WUPTx02jjrB+VZUb3LqZVx4iizWjuumj8VqswhVbdT0cTRnxHwQG6MTm+n5C8zr2Jxd1hF+iGw7IUS+u3Gf720kER04DOE+3hAVYIeP9P9N+g+t4pelk96dALJPb4T5M3d2/3JnSuu2glxsiih8ufy07zxDV7EzqLMnV+hCZi++VjX1iEjtkb0bl3UN0SS5Gc4R/kSEnh+ZMjdMZDhd2Rgpcn6+e92LHfm9EZ+xxXPCPWQJfMo9qx7MIpO4LOQpZKX8Um5ieEPFQcKC9cxiqEzrzwvCy2YjYT22J3jJDcsleGyNxhrGLo5c+F7DI+HseXPIIGE/ul+grogvp6dHv079doSmFjAB4q1/x73Z35HUcnqIxQ/bXbOfVVV526QOeJ6cqHs/zeBXqyNn8zpKM80wH6fm3qCr894yRWnaOXbtH7/HfdXcSqa3RjhErr7iC/u0b3d01uua97+1h1jO43ROhDaet1d4rO/cYIfajt3hR4cifxhr36qCVXVVwdsfNg/HyNPT1TbzfKT6tXuQ3s9vnd8w7V5m2S2Z/6yN0cyG7rd+5d66tkdSv7P7m24tLLNlaTpeppsy+rSRUpQh+y83u40TjT5hICuBMp2Dmdnfu6IW5BX3ZibpFlMeNI1rqHzb7IdvctfG7P7uvHz3NqhtwbXuhrFjXPhF/6qJqcSYeF3Lf0+S87LVaTq/5RM9I1CusIldgpPR/3TK8PUr5dq6zPbbLisyh1ZMOLbIRFSA4uvuefsDfxk+n9GMKbj36rCH0I7/nMq74A31DGujlMcM/HuQuv88B6J6oLzpGmtyrgF5R9BxEqsYM1cLhq/1q4bq5oK3C2xLn+HBp7GZ8njiL0oQVWi/lax0yhS9+Giai9sH2Vh7pP3iL3AMndHMgO+d1XdhqloOtxbesWnaA6kmuu9l+hU8UO3HJnR9Y9UH7TSgoM/3mb+rxJkN+jvKj6dXYF2jsHtaKRHckzgb97TpHbFXY21yU5WEdy/5j+dkvT7TVHItRNrWhSCuWZyDtn6dv7+0dx3VwCpDtq181hwuoZHkTfrWj5J/TjXWXFCrv7OyhlrfgKcqfnq3e56OYwuTzXvsnvZPdXy+kdlA5qRZMWrs6Gb+Qd7qEqOYvVjmpFI7sjv7vt5l7J7rqbw+Tgrht3NW8hs1vM35/Ju+jmMLWM1Y6r3Ab2Vp555U5UV5tz7VfUiiZZn6/yvekrcF7Dbuf3Xn3eir3s5vpe85tsYrXfCH2IXkfi91u6FnFftTw970Ykv/dQK5pE6fle181hwvN7P7WiSeAZ5Yu7OUwp0vPV3lYYhoq8cco1sAh9qJnd/n5L1yo8M3t3k//2MrMPL7fIMnimx24Ok5Z9EFWuWYXm/6Ewv60wDKn9Ppxa0STVuvffzWF6q/q9xX3FV6t4PvfyooHViia9nx//1RBPWDr03CJrsjv5t7NSHvleZrpUNUBNRbG+MH7ayO9lutU/Mb6jwROik1wAAAAASUVORK5CYII=;" vertex="1" parent="1">
          <mxGeometry x="419" y="836" width="42" height="42" as="geometry" />
        </mxCell>
        <mxCell id="6c4D-610fqlW7kFWhaeb-10" value="" style="editableCssRules=.*;shape=image;verticalLabelPosition=bottom;labelBackgroundColor=#ffffff;verticalAlign=top;aspect=fixed;imageAspect=0;image=data:image/svg+xml,PHN2ZyB4bWxucz0iaHR0cDovL3d3dy53My5vcmcvMjAwMC9zdmciIHhtbG5zOnY9Imh0dHBzOi8vdmVjdGEuaW8vbmFubyIgd2lkdGg9IjcwMi44NDYzMTM0NzY1NjI1IiBoZWlnaHQ9IjY4MS45NjcxMDIwNTA3ODEyIiB2aWV3Qm94PSIxMC4wMDEwMjYxNTM1NjQ0NTMgMTAuMDAwOTMzNjQ3MTU1NzYyIDcwMi44NDYzMTM0NzY1NjI1IDY4MS45NjcxMDIwNTA3ODEyIj4mI3hhOwk8c3R5bGUgdHlwZT0idGV4dC9jc3MiPiYjeGE7CS5zdDB7ZmlsbDojMzI2Y2U1O30mI3hhOwkuc3Qxe2ZpbGw6I2ZmZjt9JiN4YTsJPC9zdHlsZT4mI3hhOwk8cGF0aCBjbGFzcz0ic3QwIiBkPSJNMzU4Ljk4NyAxMC4wNmMtNi4yMTMuMzEzLTEyLjMwMSAxLjg1NC0xNy45MDYgNC41MzFMOTYuNzM3IDEzMS4zNDJjLTEyLjgxMSA2LjExOC0yMi4xMTYgMTcuNjg5LTI1LjI4MSAzMS40MzhsLTYwLjI4MSAyNjIuMjVjLTIuODEyIDEyLjIwNy0uNTI0IDI1LjAyNCA2LjM0NCAzNS41MzFhNDYuMzUgNDYuMzUgMCAwIDAgMi42NTYgMy42ODhsMTY5LjEyNSAyMTAuMjgxYzguODY4IDExLjAyMiAyMi4zMTMgMTcuNDQgMzYuNTMxIDE3LjQzOGwyNzEuMjE5LS4wNjJjMTQuMjEyLjAxIDI3LjY1Ny02LjM5NiAzNi41MzEtMTcuNDA2bDE2OS4wNjMtMjEwLjMxM2M4Ljg3My0xMS4wMjggMTIuMTk3LTI1LjQ2NCA5LjAzMS0zOS4yMTlsLTYwLjM3NS0yNjIuMjVjLTMuMTY1LTEzLjc0OC0xMi40Ny0yNS4zMTktMjUuMjgxLTMxLjQzN0wzODEuNjQzIDE0LjU5MmMtNy4wNS0zLjM2OC0xNC44NDEtNC45MjYtMjIuNjU2LTQuNTMxeiIvPiYjeGE7CTxwYXRoIGNsYXNzPSJzdDEgc3QyIiBkPSJNMzYxLjQwOCA5OS4zMDhjLTguMDc3LjAwMS0xNC42MjYgNy4yNzYtMTQuNjI1IDE2LjI1IDAgLjEzOC4wMjguMjY5LjAzMS40MDYtLjAxMiAxLjIxOS0uMDcxIDIuNjg4LS4wMzEgMy43NS4xOTMgNS4xNzYgMS4zMjEgOS4xMzcgMiAxMy45MDYgMS4yMyAxMC4yMDcgMi4yNjEgMTguNjY3IDEuNjI1IDI2LjUzMS0uNjE5IDIuOTY1LTIuODAzIDUuNjc3LTQuNzUgNy41NjNsLS4zNDQgNi4xODhjLTguNzc3LjcyNy0xNy42MTIgMi4wNTktMjYuNDM3IDQuMDYzLTM3Ljk3NSA4LjYyMi03MC42NyAyOC4xODMtOTUuNTYyIDU0LjU5NC0xLjYxNS0xLjEwMi00LjQ0MS0zLjEyOS01LjI4MS0zLjc1LTIuNjExLjM1My01LjI1IDEuMTU4LTguNjg3LS44NDQtNi41NDUtNC40MDYtMTIuNTA2LTEwLjQ4Ny0xOS43MTktMTcuODEyLTMuMzA1LTMuNTA0LTUuNjk4LTYuODQxLTkuNjI1LTEwLjIxOS0uODkyLS43NjctMi4yNTMtMS44MDUtMy4yNS0yLjU5NC0zLjA3LTIuNDQ4LTYuNjkxLTMuNzI0LTEwLjE4Ny0zLjg0NC00LjQ5Ni0uMTU0LTguODI0IDEuNjA0LTExLjY1NiA1LjE1Ni01LjAzNSA2LjMxNS0zLjQyMyAxNS45NjggMy41OTQgMjEuNTYzLjA3MS4wNTcuMTQ3LjEwMS4yMTkuMTU2Ljk2NC43ODIgMi4xNDUgMS43ODMgMy4wMzEgMi40MzggNC4xNjcgMy4wNzcgNy45NzMgNC42NTEgMTIuMTI1IDcuMDk0IDguNzQ3IDUuNDAyIDE1Ljk5OCA5Ljg4MSAyMS43NSAxNS4yODEgMi4yNDYgMi4zOTQgMi42MzkgNi42MTMgMi45MzggOC40MzhsNC42ODggNC4xODhjLTI1LjA5MyAzNy43NjQtMzYuNzA3IDg0LjQwOS0yOS44NDQgMTMxLjkzOGwtNi4xMjUgMS43ODFjLTEuNjE0IDIuMDg1LTMuODk1IDUuMzY1LTYuMjgxIDYuMzQ0LTcuNTI1IDIuMzctMTUuOTk0IDMuMjQxLTI2LjIxOSA0LjMxMy00LjguMzk5LTguOTQyLjE2MS0xNC4wMzEgMS4xMjUtMS4xMi4yMTItMi42ODEuNjE5LTMuOTA2LjkwNi0uMDQzLjAwOS0uMDgyLjAyMi0uMTI1LjAzMS0uMDY3LjAxNS0uMTU1LjA0OC0uMjE5LjA2My04LjYyIDIuMDgzLTE0LjE1OCAxMC4wMDYtMTIuMzc1IDE3LjgxM3MxMC4yMDMgMTIuNTU3IDE4Ljg3NSAxMC42ODhjLjA2My0uMDE0LjE1NC0uMDE3LjIxOS0uMDMxLjA5OC0uMDIyLjE4NC0uMDcuMjgxLS4wOTQgMS4yMDktLjI2NSAyLjcyNC0uNTYxIDMuNzgxLS44NDQgNS4wMDMtMS4zNCA4LjYyNy0zLjMwOCAxMy4xMjUtNS4wMzEgOS42NzctMy40NzEgMTcuNjkyLTYuMzcgMjUuNS03LjUgMy4yNjEtLjI1NSA2LjY5NyAyLjAxMiA4LjQwNiAyLjk2OWw2LjM3NS0xLjA5NGMxNC42NyA0NS40ODMgNDUuNDE0IDgyLjI0NSA4NC4zNDQgMTA1LjMxMmwtMi42NTYgNi4zNzVjLjk1NyAyLjQ3NSAyLjAxMyA1LjgyNSAxLjMgOC4yNjktMi44MzkgNy4zNjEtNy43MDEgMTUuMTMxLTEzLjIzOCAyMy43OTMtMi42ODEgNC4wMDItNS40MjUgNy4xMDgtNy44NDQgMTEuNjg4LS41NzkgMS4wOTYtMS4zMTYgMi43NzktMS44NzUgMy45MzgtMy43NTkgOC4wNDItMS4wMDIgMTcuMzA1IDYuMjE5IDIwLjc4MSA3LjI2NiAzLjQ5OCAxNi4yODQtLjE5MSAyMC4xODctOC4yNS4wMDYtLjAxMS4wMjYtLjAyLjAzMS0uMDMxcy0uMDA0LS4wMjMgMC0uMDMxYy41NTYtMS4xNDMgMS4zNDQtMi42NDQgMS44MTMtMy43MTkgMi4wNzItNC43NDcgMi43NjItOC44MTUgNC4yMTktMTMuNDA2IDMuODctOS43MiA1Ljk5Ni0xOS45MTkgMTEuMzIzLTI2LjI3NCAxLjQ1OS0xLjc0IDMuODM3LTIuNDA5IDYuMzAyLTMuMDdsMy4zMTMtNmMzMy45MzggMTMuMDI3IDcxLjkyNyAxNi41MjIgMTA5Ljg3NSA3LjkwNmExODkuNzcgMTg5Ljc3IDAgMCAwIDI1LjA5NC03LjU2MmwzLjEyNSA1LjYyNWMyLjUwNi44MTUgNS4yNCAxLjIzNiA3LjQ2OSA0LjUzMSAzLjk4NSA2LjgwOSA2LjcxMSAxNC44NjQgMTAuMDMxIDI0LjU5NCAxLjQ1NyA0LjU5MSAyLjE3OCA4LjY1OSA0LjI1IDEzLjQwNi40NzIgMS4wODIgMS4yNTYgMi42MDUgMS44MTMgMy43NSAzLjg5NSA4LjA4NSAxMi45NDIgMTEuNzg3IDIwLjIxOSA4LjI4MSA3LjIxOS0zLjQ3OCA5Ljk4LTEyLjc0IDYuMjE5LTIwLjc4MWwtMS45MDYtMy45MzdjLTIuNDE5LTQuNTgtNS4xNjMtNy42NTQtNy44NDQtMTEuNjU2LTUuNTM3LTguNjYyLTEwLjEzLTE1Ljg1OC0xMi45NjktMjMuMjE5LTEuMTg3LTMuNzk3LjItNi4xNTggMS4xMjUtOC42MjUtLjU1NC0uNjM1LTEuNzM5LTQuMjItMi40MzctNS45MDYgNDAuNDU3LTIzLjg4OCA3MC4yOTktNjIuMDIxIDg0LjMxMy0xMDYuMDYyIDEuODkyLjI5NyA1LjE4Mi44NzkgNi4yNSAxLjA5NCAyLjItMS40NTEgNC4yMjItMy4zNDQgOC4xODgtMy4wMzEgNy44MDggMS4xMjkgMTUuODIzIDQuMDMgMjUuNSA3LjUgNC40OTggMS43MjMgOC4xMjIgMy43MjMgMTMuMTI1IDUuMDYzIDEuMDU3LjI4MyAyLjU3Mi41NDcgMy43ODEuODEzLjA5Ny4wMjQuMTgzLjA3MS4yODEuMDk0LjA2NS4wMTUuMTU2LjAxNy4yMTkuMDMxIDguNjcyIDEuODY3IDE3LjA5NC0yLjg3OSAxOC44NzUtMTAuNjg3cy0zLjc1NC0xNS43MzItMTIuMzc1LTE3LjgxMmMtMS4yNTQtLjI4NS0zLjAzMi0uNzY5LTQuMjUtMS01LjA4OS0uOTY0LTkuMjMxLS43MjYtMTQuMDMxLTEuMTI1LTEwLjIyNS0xLjA3MS0xOC42OTMtMS45NDMtMjYuMjE5LTQuMzEyLTMuMDY4LTEuMTktNS4yNTEtNC44NDEtNi4zMTMtNi4zNDRsLTUuOTA2LTEuNzE5YzMuMDYyLTIyLjE1NCAyLjIzNy00NS4yMTEtMy4wNjItNjguMjgxLTUuMzQ4LTIzLjI4NS0xNC44LTQ0LjU4MS0yNy40MDYtNjMuMzQ0bDUuMTg4LTQuNjU2Yy4yMzctMi42MjQuMDMzLTUuMzc2IDIuNzUtOC4yODEgNS43NTEtNS40MDEgMTMuMDAzLTkuODc5IDIxLjc1LTE1LjI4MSA0LjE1Mi0yLjQ0MyA3Ljk5LTQuMDE3IDEyLjE1Ni03LjA5NC45NDItLjY5NiAyLjIyOS0xLjc5OCAzLjIxOS0yLjU5NCA3LjAxNS01LjU5NiA4LjYzMS0xNS4yNDggMy41OTQtMjEuNTYycy0xNC43OTctNi45MDktMjEuODEyLTEuMzEyYy0uOTk5Ljc5MS0yLjM1NCAxLjgyMy0zLjI1IDIuNTk0LTMuOTI3IDMuMzc4LTYuMzUxIDYuNzE0LTkuNjU2IDEwLjIxOS03LjIxMiA3LjMyNi0xMy4xNzQgMTMuNDM4LTE5LjcxOSAxNy44NDQtMi44MzYgMS42NTEtNi45OSAxLjA4LTguODc1Ljk2OWwtNS41NjIgMy45NjljLTMxLjcxOS0zMy4yNjEtNzQuOTA1LTU0LjUyNS0xMjEuNDA2LTU4LjY1NmwtLjM0NC02LjUzMWMtMS45MDQtMS44MjItNC4yMDMtMy4zNzctNC43ODEtNy4zMTItLjYzNi03Ljg2NC40MjYtMTYuMzI1IDEuNjU2LTI2LjUzMS42NzktNC43NjkgMS44MDctOC43MyAyLTEzLjkwNi4wNDQtMS4xNzctLjAyNi0yLjg4NC0uMDMxLTQuMTU2LS4wMDEtOC45NzQtNi41NDgtMTYuMjUxLTE0LjYyNS0xNi4yNXptLTE4LjMxMiAxMTMuNDM4bC00LjM0NCA3Ni43MTktLjMxMi4xNTZjLS4yOTEgNi44NjMtNS45NCAxMi4zNDQtMTIuODc1IDEyLjM0NGExMi44MiAxMi44MiAwIDAgMS03LjU5NC0yLjQ2OWwtLjEyNS4wNjMtNjIuOTA2LTQ0LjU5NGMxOS4zMzQtMTkuMDExIDQ0LjA2My0zMy4wNiA3Mi41NjItMzkuNTMxIDUuMjA2LTEuMTgyIDEwLjQxLTIuMDU5IDE1LjU5NC0yLjY4N3ptMzYuNjU2IDBjMzMuMjczIDQuMDkyIDY0LjA0NSAxOS4xNTkgODcuNjI1IDQyLjI1bC02Mi41IDQ0LjMxMy0uMjE5LS4wOTRhMTIuOTEgMTIuOTEgMCAwIDEtMTcuNjg3LTIuMzc1Yy0xLjc3MS0yLjIyMS0yLjcwMS00LjgzMi0yLjgxMi03LjQ2OWwtLjA2Mi0uMDMxek0yMzIuMTI2IDI4My42Mmw1Ny40MzcgNTEuMzc1LS4wNjIuMzEzYTEyLjg4IDEyLjg4IDAgMCAxIDEuNjI1IDE3Ljc1IDEyLjg5IDEyLjg5IDAgMCAxLTYuNjg3IDQuNDA2bC0uMDYyLjI1LTczLjYyNSAyMS4yNWMtMy43NDctMzQuMjY1IDQuMzI5LTY3LjU3NCAyMS4zNzUtOTUuMzQ0em0yNTguMTU2LjAzMWM4LjUzNCAxMy44MzMgMTQuOTk3IDI5LjI4MiAxOC44NDQgNDYuMDMxIDMuODAxIDE2LjU0OCA0Ljc1NSAzMy4wNjcgMy4xODggNDkuMDMxbC03NC0yMS4zMTItLjA2Mi0uMzEyYy02LjYyNy0xLjgxMS0xMC42OTktOC41NTItOS4xNTYtMTUuMzEyLjYzMi0yLjc3IDIuMTAyLTUuMTEzIDQuMDk0LTYuODQ0bC0uMDMxLS4xNTYgNTcuMTI1LTUxLjEyNXptLTE0MC42NTYgNTUuMzEzaDIzLjUzMWwxNC42MjUgMTguMjgxLTUuMjUgMjIuODEzLTIxLjEyNSAxMC4xNTYtMjEuMTg3LTEwLjE4Ny01LjI1LTIyLjgxMnptNzUuNDM4IDYyLjU2M2ExMi44MyAxMi44MyAwIDAgMSAyLjk2OS4yMTlsLjEyNS0uMTU2IDc2LjE1NiAxMi44NzVjLTExLjE0NiAzMS4zMTMtMzIuNDczIDU4LjQ0LTYwLjk2OSA3Ni41OTRsLTI5LjU2Mi03MS40MDYuMDk0LS4xMjVjLTIuNzE2LTYuMzEuMDAyLTEzLjcxIDYuMjUtMTYuNzE5IDEuNi0uNzcgMy4yNzEtMS4xOTcgNC45MzgtMS4yODF6bS0xMjcuOTA2LjMxM2ExMi45IDEyLjkgMCAwIDEgMTIuMzc1IDEwLjAzMSAxMi43NyAxMi43NyAwIDAgMS0uNzE5IDcuOTM4bC4yMTkuMjgxLTI5LjI1IDcwLjY4OGMtMjcuMzQ3LTE3LjU0OS00OS4xMjktNDMuODI0LTYwLjc4MS03Ni4wNjJsNzUuNS0xMi44MTIuMTI1LjE1NmMuODQ1LS4xNTUgMS43MDEtLjIzIDIuNTMxLS4yMTl6bTYzLjc4MSAzMC45NjljMi4wMjQtLjA3NCA0LjA3OS4zNDEgNi4wMzEgMS4yODEgMi41NiAxLjIzMyA0LjUzNyAzLjE3MyA1Ljc4MSA1LjVoLjI4MWwzNy4yMTkgNjcuMjVjLTQuODMgMS42MTktOS43OTYgMy4wMDMtMTQuODc1IDQuMTU2LTI4LjQ2NSA2LjQ2My01Ni44MzkgNC41MDUtODIuNTMxLTQuMjVsMzcuMTI1LTY3LjEyNWguMDYzYTEyLjkxIDEyLjkxIDAgMCAxIDEwLjkwNi02LjgxMnoiIHN0cm9rZT0ibm9uZSIgc3Ryb2tlLXdpZHRoPSIuMjUiLz4mI3hhOzwvc3ZnPg==;fontColor=default;" vertex="1" parent="1">
          <mxGeometry x="686" y="829.6" width="57.68" height="54.8" as="geometry" />
        </mxCell>
        <mxCell id="6c4D-610fqlW7kFWhaeb-14" value="" style="edgeStyle=orthogonalEdgeStyle;rounded=0;orthogonalLoop=1;jettySize=auto;html=1;fontSize=23;" edge="1" parent="1" source="6c4D-610fqlW7kFWhaeb-12" target="6c4D-610fqlW7kFWhaeb-10">
          <mxGeometry relative="1" as="geometry" />
        </mxCell>
        <mxCell id="6c4D-610fqlW7kFWhaeb-18" style="edgeStyle=orthogonalEdgeStyle;rounded=0;orthogonalLoop=1;jettySize=auto;html=1;entryX=0;entryY=0.75;entryDx=0;entryDy=0;fontSize=23;" edge="1" parent="1" source="6c4D-610fqlW7kFWhaeb-12" target="6c4D-610fqlW7kFWhaeb-16">
          <mxGeometry relative="1" as="geometry">
            <Array as="points">
              <mxPoint x="653" y="857" />
              <mxPoint x="653" y="800" />
            </Array>
          </mxGeometry>
        </mxCell>
        <mxCell id="6c4D-610fqlW7kFWhaeb-19" style="edgeStyle=orthogonalEdgeStyle;rounded=0;orthogonalLoop=1;jettySize=auto;html=1;entryX=0;entryY=0.75;entryDx=0;entryDy=0;fontSize=23;" edge="1" parent="1" source="6c4D-610fqlW7kFWhaeb-12" target="6c4D-610fqlW7kFWhaeb-15">
          <mxGeometry relative="1" as="geometry">
            <Array as="points">
              <mxPoint x="653" y="857" />
              <mxPoint x="653" y="932" />
            </Array>
          </mxGeometry>
        </mxCell>
        <mxCell id="6c4D-610fqlW7kFWhaeb-12" value="" style="shape=image;verticalLabelPosition=bottom;labelBackgroundColor=default;verticalAlign=top;aspect=fixed;imageAspect=0;image=https://argocd-operator.readthedocs.io/en/latest/assets/logo.png;" vertex="1" parent="1">
          <mxGeometry x="532" y="813.9" width="86.19" height="86.19" as="geometry" />
        </mxCell>
        <mxCell id="6c4D-610fqlW7kFWhaeb-15" value="" style="editableCssRules=.*;shape=image;verticalLabelPosition=bottom;labelBackgroundColor=#ffffff;verticalAlign=top;aspect=fixed;imageAspect=0;image=data:image/svg+xml,PHN2ZyB4bWxucz0iaHR0cDovL3d3dy53My5vcmcvMjAwMC9zdmciIHhtbG5zOnY9Imh0dHBzOi8vdmVjdGEuaW8vbmFubyIgd2lkdGg9IjcwMi44NDYzMTM0NzY1NjI1IiBoZWlnaHQ9IjY4MS45NjcxMDIwNTA3ODEyIiB2aWV3Qm94PSIxMC4wMDEwMjYxNTM1NjQ0NTMgMTAuMDAwOTMzNjQ3MTU1NzYyIDcwMi44NDYzMTM0NzY1NjI1IDY4MS45NjcxMDIwNTA3ODEyIj4mI3hhOwk8c3R5bGUgdHlwZT0idGV4dC9jc3MiPiYjeGE7CS5zdDB7ZmlsbDojMzI2Y2U1O30mI3hhOwkuc3Qxe2ZpbGw6I2ZmZjt9JiN4YTsJPC9zdHlsZT4mI3hhOwk8cGF0aCBjbGFzcz0ic3QwIiBkPSJNMzU4Ljk4NyAxMC4wNmMtNi4yMTMuMzEzLTEyLjMwMSAxLjg1NC0xNy45MDYgNC41MzFMOTYuNzM3IDEzMS4zNDJjLTEyLjgxMSA2LjExOC0yMi4xMTYgMTcuNjg5LTI1LjI4MSAzMS40MzhsLTYwLjI4MSAyNjIuMjVjLTIuODEyIDEyLjIwNy0uNTI0IDI1LjAyNCA2LjM0NCAzNS41MzFhNDYuMzUgNDYuMzUgMCAwIDAgMi42NTYgMy42ODhsMTY5LjEyNSAyMTAuMjgxYzguODY4IDExLjAyMiAyMi4zMTMgMTcuNDQgMzYuNTMxIDE3LjQzOGwyNzEuMjE5LS4wNjJjMTQuMjEyLjAxIDI3LjY1Ny02LjM5NiAzNi41MzEtMTcuNDA2bDE2OS4wNjMtMjEwLjMxM2M4Ljg3My0xMS4wMjggMTIuMTk3LTI1LjQ2NCA5LjAzMS0zOS4yMTlsLTYwLjM3NS0yNjIuMjVjLTMuMTY1LTEzLjc0OC0xMi40Ny0yNS4zMTktMjUuMjgxLTMxLjQzN0wzODEuNjQzIDE0LjU5MmMtNy4wNS0zLjM2OC0xNC44NDEtNC45MjYtMjIuNjU2LTQuNTMxeiIvPiYjeGE7CTxwYXRoIGNsYXNzPSJzdDEgc3QyIiBkPSJNMzYxLjQwOCA5OS4zMDhjLTguMDc3LjAwMS0xNC42MjYgNy4yNzYtMTQuNjI1IDE2LjI1IDAgLjEzOC4wMjguMjY5LjAzMS40MDYtLjAxMiAxLjIxOS0uMDcxIDIuNjg4LS4wMzEgMy43NS4xOTMgNS4xNzYgMS4zMjEgOS4xMzcgMiAxMy45MDYgMS4yMyAxMC4yMDcgMi4yNjEgMTguNjY3IDEuNjI1IDI2LjUzMS0uNjE5IDIuOTY1LTIuODAzIDUuNjc3LTQuNzUgNy41NjNsLS4zNDQgNi4xODhjLTguNzc3LjcyNy0xNy42MTIgMi4wNTktMjYuNDM3IDQuMDYzLTM3Ljk3NSA4LjYyMi03MC42NyAyOC4xODMtOTUuNTYyIDU0LjU5NC0xLjYxNS0xLjEwMi00LjQ0MS0zLjEyOS01LjI4MS0zLjc1LTIuNjExLjM1My01LjI1IDEuMTU4LTguNjg3LS44NDQtNi41NDUtNC40MDYtMTIuNTA2LTEwLjQ4Ny0xOS43MTktMTcuODEyLTMuMzA1LTMuNTA0LTUuNjk4LTYuODQxLTkuNjI1LTEwLjIxOS0uODkyLS43NjctMi4yNTMtMS44MDUtMy4yNS0yLjU5NC0zLjA3LTIuNDQ4LTYuNjkxLTMuNzI0LTEwLjE4Ny0zLjg0NC00LjQ5Ni0uMTU0LTguODI0IDEuNjA0LTExLjY1NiA1LjE1Ni01LjAzNSA2LjMxNS0zLjQyMyAxNS45NjggMy41OTQgMjEuNTYzLjA3MS4wNTcuMTQ3LjEwMS4yMTkuMTU2Ljk2NC43ODIgMi4xNDUgMS43ODMgMy4wMzEgMi40MzggNC4xNjcgMy4wNzcgNy45NzMgNC42NTEgMTIuMTI1IDcuMDk0IDguNzQ3IDUuNDAyIDE1Ljk5OCA5Ljg4MSAyMS43NSAxNS4yODEgMi4yNDYgMi4zOTQgMi42MzkgNi42MTMgMi45MzggOC40MzhsNC42ODggNC4xODhjLTI1LjA5MyAzNy43NjQtMzYuNzA3IDg0LjQwOS0yOS44NDQgMTMxLjkzOGwtNi4xMjUgMS43ODFjLTEuNjE0IDIuMDg1LTMuODk1IDUuMzY1LTYuMjgxIDYuMzQ0LTcuNTI1IDIuMzctMTUuOTk0IDMuMjQxLTI2LjIxOSA0LjMxMy00LjguMzk5LTguOTQyLjE2MS0xNC4wMzEgMS4xMjUtMS4xMi4yMTItMi42ODEuNjE5LTMuOTA2LjkwNi0uMDQzLjAwOS0uMDgyLjAyMi0uMTI1LjAzMS0uMDY3LjAxNS0uMTU1LjA0OC0uMjE5LjA2My04LjYyIDIuMDgzLTE0LjE1OCAxMC4wMDYtMTIuMzc1IDE3LjgxM3MxMC4yMDMgMTIuNTU3IDE4Ljg3NSAxMC42ODhjLjA2My0uMDE0LjE1NC0uMDE3LjIxOS0uMDMxLjA5OC0uMDIyLjE4NC0uMDcuMjgxLS4wOTQgMS4yMDktLjI2NSAyLjcyNC0uNTYxIDMuNzgxLS44NDQgNS4wMDMtMS4zNCA4LjYyNy0zLjMwOCAxMy4xMjUtNS4wMzEgOS42NzctMy40NzEgMTcuNjkyLTYuMzcgMjUuNS03LjUgMy4yNjEtLjI1NSA2LjY5NyAyLjAxMiA4LjQwNiAyLjk2OWw2LjM3NS0xLjA5NGMxNC42NyA0NS40ODMgNDUuNDE0IDgyLjI0NSA4NC4zNDQgMTA1LjMxMmwtMi42NTYgNi4zNzVjLjk1NyAyLjQ3NSAyLjAxMyA1LjgyNSAxLjMgOC4yNjktMi44MzkgNy4zNjEtNy43MDEgMTUuMTMxLTEzLjIzOCAyMy43OTMtMi42ODEgNC4wMDItNS40MjUgNy4xMDgtNy44NDQgMTEuNjg4LS41NzkgMS4wOTYtMS4zMTYgMi43NzktMS44NzUgMy45MzgtMy43NTkgOC4wNDItMS4wMDIgMTcuMzA1IDYuMjE5IDIwLjc4MSA3LjI2NiAzLjQ5OCAxNi4yODQtLjE5MSAyMC4xODctOC4yNS4wMDYtLjAxMS4wMjYtLjAyLjAzMS0uMDMxcy0uMDA0LS4wMjMgMC0uMDMxYy41NTYtMS4xNDMgMS4zNDQtMi42NDQgMS44MTMtMy43MTkgMi4wNzItNC43NDcgMi43NjItOC44MTUgNC4yMTktMTMuNDA2IDMuODctOS43MiA1Ljk5Ni0xOS45MTkgMTEuMzIzLTI2LjI3NCAxLjQ1OS0xLjc0IDMuODM3LTIuNDA5IDYuMzAyLTMuMDdsMy4zMTMtNmMzMy45MzggMTMuMDI3IDcxLjkyNyAxNi41MjIgMTA5Ljg3NSA3LjkwNmExODkuNzcgMTg5Ljc3IDAgMCAwIDI1LjA5NC03LjU2MmwzLjEyNSA1LjYyNWMyLjUwNi44MTUgNS4yNCAxLjIzNiA3LjQ2OSA0LjUzMSAzLjk4NSA2LjgwOSA2LjcxMSAxNC44NjQgMTAuMDMxIDI0LjU5NCAxLjQ1NyA0LjU5MSAyLjE3OCA4LjY1OSA0LjI1IDEzLjQwNi40NzIgMS4wODIgMS4yNTYgMi42MDUgMS44MTMgMy43NSAzLjg5NSA4LjA4NSAxMi45NDIgMTEuNzg3IDIwLjIxOSA4LjI4MSA3LjIxOS0zLjQ3OCA5Ljk4LTEyLjc0IDYuMjE5LTIwLjc4MWwtMS45MDYtMy45MzdjLTIuNDE5LTQuNTgtNS4xNjMtNy42NTQtNy44NDQtMTEuNjU2LTUuNTM3LTguNjYyLTEwLjEzLTE1Ljg1OC0xMi45NjktMjMuMjE5LTEuMTg3LTMuNzk3LjItNi4xNTggMS4xMjUtOC42MjUtLjU1NC0uNjM1LTEuNzM5LTQuMjItMi40MzctNS45MDYgNDAuNDU3LTIzLjg4OCA3MC4yOTktNjIuMDIxIDg0LjMxMy0xMDYuMDYyIDEuODkyLjI5NyA1LjE4Mi44NzkgNi4yNSAxLjA5NCAyLjItMS40NTEgNC4yMjItMy4zNDQgOC4xODgtMy4wMzEgNy44MDggMS4xMjkgMTUuODIzIDQuMDMgMjUuNSA3LjUgNC40OTggMS43MjMgOC4xMjIgMy43MjMgMTMuMTI1IDUuMDYzIDEuMDU3LjI4MyAyLjU3Mi41NDcgMy43ODEuODEzLjA5Ny4wMjQuMTgzLjA3MS4yODEuMDk0LjA2NS4wMTUuMTU2LjAxNy4yMTkuMDMxIDguNjcyIDEuODY3IDE3LjA5NC0yLjg3OSAxOC44NzUtMTAuNjg3cy0zLjc1NC0xNS43MzItMTIuMzc1LTE3LjgxMmMtMS4yNTQtLjI4NS0zLjAzMi0uNzY5LTQuMjUtMS01LjA4OS0uOTY0LTkuMjMxLS43MjYtMTQuMDMxLTEuMTI1LTEwLjIyNS0xLjA3MS0xOC42OTMtMS45NDMtMjYuMjE5LTQuMzEyLTMuMDY4LTEuMTktNS4yNTEtNC44NDEtNi4zMTMtNi4zNDRsLTUuOTA2LTEuNzE5YzMuMDYyLTIyLjE1NCAyLjIzNy00NS4yMTEtMy4wNjItNjguMjgxLTUuMzQ4LTIzLjI4NS0xNC44LTQ0LjU4MS0yNy40MDYtNjMuMzQ0bDUuMTg4LTQuNjU2Yy4yMzctMi42MjQuMDMzLTUuMzc2IDIuNzUtOC4yODEgNS43NTEtNS40MDEgMTMuMDAzLTkuODc5IDIxLjc1LTE1LjI4MSA0LjE1Mi0yLjQ0MyA3Ljk5LTQuMDE3IDEyLjE1Ni03LjA5NC45NDItLjY5NiAyLjIyOS0xLjc5OCAzLjIxOS0yLjU5NCA3LjAxNS01LjU5NiA4LjYzMS0xNS4yNDggMy41OTQtMjEuNTYycy0xNC43OTctNi45MDktMjEuODEyLTEuMzEyYy0uOTk5Ljc5MS0yLjM1NCAxLjgyMy0zLjI1IDIuNTk0LTMuOTI3IDMuMzc4LTYuMzUxIDYuNzE0LTkuNjU2IDEwLjIxOS03LjIxMiA3LjMyNi0xMy4xNzQgMTMuNDM4LTE5LjcxOSAxNy44NDQtMi44MzYgMS42NTEtNi45OSAxLjA4LTguODc1Ljk2OWwtNS41NjIgMy45NjljLTMxLjcxOS0zMy4yNjEtNzQuOTA1LTU0LjUyNS0xMjEuNDA2LTU4LjY1NmwtLjM0NC02LjUzMWMtMS45MDQtMS44MjItNC4yMDMtMy4zNzctNC43ODEtNy4zMTItLjYzNi03Ljg2NC40MjYtMTYuMzI1IDEuNjU2LTI2LjUzMS42NzktNC43NjkgMS44MDctOC43MyAyLTEzLjkwNi4wNDQtMS4xNzctLjAyNi0yLjg4NC0uMDMxLTQuMTU2LS4wMDEtOC45NzQtNi41NDgtMTYuMjUxLTE0LjYyNS0xNi4yNXptLTE4LjMxMiAxMTMuNDM4bC00LjM0NCA3Ni43MTktLjMxMi4xNTZjLS4yOTEgNi44NjMtNS45NCAxMi4zNDQtMTIuODc1IDEyLjM0NGExMi44MiAxMi44MiAwIDAgMS03LjU5NC0yLjQ2OWwtLjEyNS4wNjMtNjIuOTA2LTQ0LjU5NGMxOS4zMzQtMTkuMDExIDQ0LjA2My0zMy4wNiA3Mi41NjItMzkuNTMxIDUuMjA2LTEuMTgyIDEwLjQxLTIuMDU5IDE1LjU5NC0yLjY4N3ptMzYuNjU2IDBjMzMuMjczIDQuMDkyIDY0LjA0NSAxOS4xNTkgODcuNjI1IDQyLjI1bC02Mi41IDQ0LjMxMy0uMjE5LS4wOTRhMTIuOTEgMTIuOTEgMCAwIDEtMTcuNjg3LTIuMzc1Yy0xLjc3MS0yLjIyMS0yLjcwMS00LjgzMi0yLjgxMi03LjQ2OWwtLjA2Mi0uMDMxek0yMzIuMTI2IDI4My42Mmw1Ny40MzcgNTEuMzc1LS4wNjIuMzEzYTEyLjg4IDEyLjg4IDAgMCAxIDEuNjI1IDE3Ljc1IDEyLjg5IDEyLjg5IDAgMCAxLTYuNjg3IDQuNDA2bC0uMDYyLjI1LTczLjYyNSAyMS4yNWMtMy43NDctMzQuMjY1IDQuMzI5LTY3LjU3NCAyMS4zNzUtOTUuMzQ0em0yNTguMTU2LjAzMWM4LjUzNCAxMy44MzMgMTQuOTk3IDI5LjI4MiAxOC44NDQgNDYuMDMxIDMuODAxIDE2LjU0OCA0Ljc1NSAzMy4wNjcgMy4xODggNDkuMDMxbC03NC0yMS4zMTItLjA2Mi0uMzEyYy02LjYyNy0xLjgxMS0xMC42OTktOC41NTItOS4xNTYtMTUuMzEyLjYzMi0yLjc3IDIuMTAyLTUuMTEzIDQuMDk0LTYuODQ0bC0uMDMxLS4xNTYgNTcuMTI1LTUxLjEyNXptLTE0MC42NTYgNTUuMzEzaDIzLjUzMWwxNC42MjUgMTguMjgxLTUuMjUgMjIuODEzLTIxLjEyNSAxMC4xNTYtMjEuMTg3LTEwLjE4Ny01LjI1LTIyLjgxMnptNzUuNDM4IDYyLjU2M2ExMi44MyAxMi44MyAwIDAgMSAyLjk2OS4yMTlsLjEyNS0uMTU2IDc2LjE1NiAxMi44NzVjLTExLjE0NiAzMS4zMTMtMzIuNDczIDU4LjQ0LTYwLjk2OSA3Ni41OTRsLTI5LjU2Mi03MS40MDYuMDk0LS4xMjVjLTIuNzE2LTYuMzEuMDAyLTEzLjcxIDYuMjUtMTYuNzE5IDEuNi0uNzcgMy4yNzEtMS4xOTcgNC45MzgtMS4yODF6bS0xMjcuOTA2LjMxM2ExMi45IDEyLjkgMCAwIDEgMTIuMzc1IDEwLjAzMSAxMi43NyAxMi43NyAwIDAgMS0uNzE5IDcuOTM4bC4yMTkuMjgxLTI5LjI1IDcwLjY4OGMtMjcuMzQ3LTE3LjU0OS00OS4xMjktNDMuODI0LTYwLjc4MS03Ni4wNjJsNzUuNS0xMi44MTIuMTI1LjE1NmMuODQ1LS4xNTUgMS43MDEtLjIzIDIuNTMxLS4yMTl6bTYzLjc4MSAzMC45NjljMi4wMjQtLjA3NCA0LjA3OS4zNDEgNi4wMzEgMS4yODEgMi41NiAxLjIzMyA0LjUzNyAzLjE3MyA1Ljc4MSA1LjVoLjI4MWwzNy4yMTkgNjcuMjVjLTQuODMgMS42MTktOS43OTYgMy4wMDMtMTQuODc1IDQuMTU2LTI4LjQ2NSA2LjQ2My01Ni44MzkgNC41MDUtODIuNTMxLTQuMjVsMzcuMTI1LTY3LjEyNWguMDYzYTEyLjkxIDEyLjkxIDAgMCAxIDEwLjkwNi02LjgxMnoiIHN0cm9rZT0ibm9uZSIgc3Ryb2tlLXdpZHRoPSIuMjUiLz4mI3hhOzwvc3ZnPg==;fontColor=default;" vertex="1" parent="1">
          <mxGeometry x="686" y="891" width="57.68" height="54.8" as="geometry" />
        </mxCell>
        <mxCell id="6c4D-610fqlW7kFWhaeb-16" value="" style="editableCssRules=.*;shape=image;verticalLabelPosition=bottom;labelBackgroundColor=#ffffff;verticalAlign=top;aspect=fixed;imageAspect=0;image=data:image/svg+xml,PHN2ZyB4bWxucz0iaHR0cDovL3d3dy53My5vcmcvMjAwMC9zdmciIHhtbG5zOnY9Imh0dHBzOi8vdmVjdGEuaW8vbmFubyIgd2lkdGg9IjcwMi44NDYzMTM0NzY1NjI1IiBoZWlnaHQ9IjY4MS45NjcxMDIwNTA3ODEyIiB2aWV3Qm94PSIxMC4wMDEwMjYxNTM1NjQ0NTMgMTAuMDAwOTMzNjQ3MTU1NzYyIDcwMi44NDYzMTM0NzY1NjI1IDY4MS45NjcxMDIwNTA3ODEyIj4mI3hhOwk8c3R5bGUgdHlwZT0idGV4dC9jc3MiPiYjeGE7CS5zdDB7ZmlsbDojMzI2Y2U1O30mI3hhOwkuc3Qxe2ZpbGw6I2ZmZjt9JiN4YTsJPC9zdHlsZT4mI3hhOwk8cGF0aCBjbGFzcz0ic3QwIiBkPSJNMzU4Ljk4NyAxMC4wNmMtNi4yMTMuMzEzLTEyLjMwMSAxLjg1NC0xNy45MDYgNC41MzFMOTYuNzM3IDEzMS4zNDJjLTEyLjgxMSA2LjExOC0yMi4xMTYgMTcuNjg5LTI1LjI4MSAzMS40MzhsLTYwLjI4MSAyNjIuMjVjLTIuODEyIDEyLjIwNy0uNTI0IDI1LjAyNCA2LjM0NCAzNS41MzFhNDYuMzUgNDYuMzUgMCAwIDAgMi42NTYgMy42ODhsMTY5LjEyNSAyMTAuMjgxYzguODY4IDExLjAyMiAyMi4zMTMgMTcuNDQgMzYuNTMxIDE3LjQzOGwyNzEuMjE5LS4wNjJjMTQuMjEyLjAxIDI3LjY1Ny02LjM5NiAzNi41MzEtMTcuNDA2bDE2OS4wNjMtMjEwLjMxM2M4Ljg3My0xMS4wMjggMTIuMTk3LTI1LjQ2NCA5LjAzMS0zOS4yMTlsLTYwLjM3NS0yNjIuMjVjLTMuMTY1LTEzLjc0OC0xMi40Ny0yNS4zMTktMjUuMjgxLTMxLjQzN0wzODEuNjQzIDE0LjU5MmMtNy4wNS0zLjM2OC0xNC44NDEtNC45MjYtMjIuNjU2LTQuNTMxeiIvPiYjeGE7CTxwYXRoIGNsYXNzPSJzdDEgc3QyIiBkPSJNMzYxLjQwOCA5OS4zMDhjLTguMDc3LjAwMS0xNC42MjYgNy4yNzYtMTQuNjI1IDE2LjI1IDAgLjEzOC4wMjguMjY5LjAzMS40MDYtLjAxMiAxLjIxOS0uMDcxIDIuNjg4LS4wMzEgMy43NS4xOTMgNS4xNzYgMS4zMjEgOS4xMzcgMiAxMy45MDYgMS4yMyAxMC4yMDcgMi4yNjEgMTguNjY3IDEuNjI1IDI2LjUzMS0uNjE5IDIuOTY1LTIuODAzIDUuNjc3LTQuNzUgNy41NjNsLS4zNDQgNi4xODhjLTguNzc3LjcyNy0xNy42MTIgMi4wNTktMjYuNDM3IDQuMDYzLTM3Ljk3NSA4LjYyMi03MC42NyAyOC4xODMtOTUuNTYyIDU0LjU5NC0xLjYxNS0xLjEwMi00LjQ0MS0zLjEyOS01LjI4MS0zLjc1LTIuNjExLjM1My01LjI1IDEuMTU4LTguNjg3LS44NDQtNi41NDUtNC40MDYtMTIuNTA2LTEwLjQ4Ny0xOS43MTktMTcuODEyLTMuMzA1LTMuNTA0LTUuNjk4LTYuODQxLTkuNjI1LTEwLjIxOS0uODkyLS43NjctMi4yNTMtMS44MDUtMy4yNS0yLjU5NC0zLjA3LTIuNDQ4LTYuNjkxLTMuNzI0LTEwLjE4Ny0zLjg0NC00LjQ5Ni0uMTU0LTguODI0IDEuNjA0LTExLjY1NiA1LjE1Ni01LjAzNSA2LjMxNS0zLjQyMyAxNS45NjggMy41OTQgMjEuNTYzLjA3MS4wNTcuMTQ3LjEwMS4yMTkuMTU2Ljk2NC43ODIgMi4xNDUgMS43ODMgMy4wMzEgMi40MzggNC4xNjcgMy4wNzcgNy45NzMgNC42NTEgMTIuMTI1IDcuMDk0IDguNzQ3IDUuNDAyIDE1Ljk5OCA5Ljg4MSAyMS43NSAxNS4yODEgMi4yNDYgMi4zOTQgMi42MzkgNi42MTMgMi45MzggOC40MzhsNC42ODggNC4xODhjLTI1LjA5MyAzNy43NjQtMzYuNzA3IDg0LjQwOS0yOS44NDQgMTMxLjkzOGwtNi4xMjUgMS43ODFjLTEuNjE0IDIuMDg1LTMuODk1IDUuMzY1LTYuMjgxIDYuMzQ0LTcuNTI1IDIuMzctMTUuOTk0IDMuMjQxLTI2LjIxOSA0LjMxMy00LjguMzk5LTguOTQyLjE2MS0xNC4wMzEgMS4xMjUtMS4xMi4yMTItMi42ODEuNjE5LTMuOTA2LjkwNi0uMDQzLjAwOS0uMDgyLjAyMi0uMTI1LjAzMS0uMDY3LjAxNS0uMTU1LjA0OC0uMjE5LjA2My04LjYyIDIuMDgzLTE0LjE1OCAxMC4wMDYtMTIuMzc1IDE3LjgxM3MxMC4yMDMgMTIuNTU3IDE4Ljg3NSAxMC42ODhjLjA2My0uMDE0LjE1NC0uMDE3LjIxOS0uMDMxLjA5OC0uMDIyLjE4NC0uMDcuMjgxLS4wOTQgMS4yMDktLjI2NSAyLjcyNC0uNTYxIDMuNzgxLS44NDQgNS4wMDMtMS4zNCA4LjYyNy0zLjMwOCAxMy4xMjUtNS4wMzEgOS42NzctMy40NzEgMTcuNjkyLTYuMzcgMjUuNS03LjUgMy4yNjEtLjI1NSA2LjY5NyAyLjAxMiA4LjQwNiAyLjk2OWw2LjM3NS0xLjA5NGMxNC42NyA0NS40ODMgNDUuNDE0IDgyLjI0NSA4NC4zNDQgMTA1LjMxMmwtMi42NTYgNi4zNzVjLjk1NyAyLjQ3NSAyLjAxMyA1LjgyNSAxLjMgOC4yNjktMi44MzkgNy4zNjEtNy43MDEgMTUuMTMxLTEzLjIzOCAyMy43OTMtMi42ODEgNC4wMDItNS40MjUgNy4xMDgtNy44NDQgMTEuNjg4LS41NzkgMS4wOTYtMS4zMTYgMi43NzktMS44NzUgMy45MzgtMy43NTkgOC4wNDItMS4wMDIgMTcuMzA1IDYuMjE5IDIwLjc4MSA3LjI2NiAzLjQ5OCAxNi4yODQtLjE5MSAyMC4xODctOC4yNS4wMDYtLjAxMS4wMjYtLjAyLjAzMS0uMDMxcy0uMDA0LS4wMjMgMC0uMDMxYy41NTYtMS4xNDMgMS4zNDQtMi42NDQgMS44MTMtMy43MTkgMi4wNzItNC43NDcgMi43NjItOC44MTUgNC4yMTktMTMuNDA2IDMuODctOS43MiA1Ljk5Ni0xOS45MTkgMTEuMzIzLTI2LjI3NCAxLjQ1OS0xLjc0IDMuODM3LTIuNDA5IDYuMzAyLTMuMDdsMy4zMTMtNmMzMy45MzggMTMuMDI3IDcxLjkyNyAxNi41MjIgMTA5Ljg3NSA3LjkwNmExODkuNzcgMTg5Ljc3IDAgMCAwIDI1LjA5NC03LjU2MmwzLjEyNSA1LjYyNWMyLjUwNi44MTUgNS4yNCAxLjIzNiA3LjQ2OSA0LjUzMSAzLjk4NSA2LjgwOSA2LjcxMSAxNC44NjQgMTAuMDMxIDI0LjU5NCAxLjQ1NyA0LjU5MSAyLjE3OCA4LjY1OSA0LjI1IDEzLjQwNi40NzIgMS4wODIgMS4yNTYgMi42MDUgMS44MTMgMy43NSAzLjg5NSA4LjA4NSAxMi45NDIgMTEuNzg3IDIwLjIxOSA4LjI4MSA3LjIxOS0zLjQ3OCA5Ljk4LTEyLjc0IDYuMjE5LTIwLjc4MWwtMS45MDYtMy45MzdjLTIuNDE5LTQuNTgtNS4xNjMtNy42NTQtNy44NDQtMTEuNjU2LTUuNTM3LTguNjYyLTEwLjEzLTE1Ljg1OC0xMi45NjktMjMuMjE5LTEuMTg3LTMuNzk3LjItNi4xNTggMS4xMjUtOC42MjUtLjU1NC0uNjM1LTEuNzM5LTQuMjItMi40MzctNS45MDYgNDAuNDU3LTIzLjg4OCA3MC4yOTktNjIuMDIxIDg0LjMxMy0xMDYuMDYyIDEuODkyLjI5NyA1LjE4Mi44NzkgNi4yNSAxLjA5NCAyLjItMS40NTEgNC4yMjItMy4zNDQgOC4xODgtMy4wMzEgNy44MDggMS4xMjkgMTUuODIzIDQuMDMgMjUuNSA3LjUgNC40OTggMS43MjMgOC4xMjIgMy43MjMgMTMuMTI1IDUuMDYzIDEuMDU3LjI4MyAyLjU3Mi41NDcgMy43ODEuODEzLjA5Ny4wMjQuMTgzLjA3MS4yODEuMDk0LjA2NS4wMTUuMTU2LjAxNy4yMTkuMDMxIDguNjcyIDEuODY3IDE3LjA5NC0yLjg3OSAxOC44NzUtMTAuNjg3cy0zLjc1NC0xNS43MzItMTIuMzc1LTE3LjgxMmMtMS4yNTQtLjI4NS0zLjAzMi0uNzY5LTQuMjUtMS01LjA4OS0uOTY0LTkuMjMxLS43MjYtMTQuMDMxLTEuMTI1LTEwLjIyNS0xLjA3MS0xOC42OTMtMS45NDMtMjYuMjE5LTQuMzEyLTMuMDY4LTEuMTktNS4yNTEtNC44NDEtNi4zMTMtNi4zNDRsLTUuOTA2LTEuNzE5YzMuMDYyLTIyLjE1NCAyLjIzNy00NS4yMTEtMy4wNjItNjguMjgxLTUuMzQ4LTIzLjI4NS0xNC44LTQ0LjU4MS0yNy40MDYtNjMuMzQ0bDUuMTg4LTQuNjU2Yy4yMzctMi42MjQuMDMzLTUuMzc2IDIuNzUtOC4yODEgNS43NTEtNS40MDEgMTMuMDAzLTkuODc5IDIxLjc1LTE1LjI4MSA0LjE1Mi0yLjQ0MyA3Ljk5LTQuMDE3IDEyLjE1Ni03LjA5NC45NDItLjY5NiAyLjIyOS0xLjc5OCAzLjIxOS0yLjU5NCA3LjAxNS01LjU5NiA4LjYzMS0xNS4yNDggMy41OTQtMjEuNTYycy0xNC43OTctNi45MDktMjEuODEyLTEuMzEyYy0uOTk5Ljc5MS0yLjM1NCAxLjgyMy0zLjI1IDIuNTk0LTMuOTI3IDMuMzc4LTYuMzUxIDYuNzE0LTkuNjU2IDEwLjIxOS03LjIxMiA3LjMyNi0xMy4xNzQgMTMuNDM4LTE5LjcxOSAxNy44NDQtMi44MzYgMS42NTEtNi45OSAxLjA4LTguODc1Ljk2OWwtNS41NjIgMy45NjljLTMxLjcxOS0zMy4yNjEtNzQuOTA1LTU0LjUyNS0xMjEuNDA2LTU4LjY1NmwtLjM0NC02LjUzMWMtMS45MDQtMS44MjItNC4yMDMtMy4zNzctNC43ODEtNy4zMTItLjYzNi03Ljg2NC40MjYtMTYuMzI1IDEuNjU2LTI2LjUzMS42NzktNC43NjkgMS44MDctOC43MyAyLTEzLjkwNi4wNDQtMS4xNzctLjAyNi0yLjg4NC0uMDMxLTQuMTU2LS4wMDEtOC45NzQtNi41NDgtMTYuMjUxLTE0LjYyNS0xNi4yNXptLTE4LjMxMiAxMTMuNDM4bC00LjM0NCA3Ni43MTktLjMxMi4xNTZjLS4yOTEgNi44NjMtNS45NCAxMi4zNDQtMTIuODc1IDEyLjM0NGExMi44MiAxMi44MiAwIDAgMS03LjU5NC0yLjQ2OWwtLjEyNS4wNjMtNjIuOTA2LTQ0LjU5NGMxOS4zMzQtMTkuMDExIDQ0LjA2My0zMy4wNiA3Mi41NjItMzkuNTMxIDUuMjA2LTEuMTgyIDEwLjQxLTIuMDU5IDE1LjU5NC0yLjY4N3ptMzYuNjU2IDBjMzMuMjczIDQuMDkyIDY0LjA0NSAxOS4xNTkgODcuNjI1IDQyLjI1bC02Mi41IDQ0LjMxMy0uMjE5LS4wOTRhMTIuOTEgMTIuOTEgMCAwIDEtMTcuNjg3LTIuMzc1Yy0xLjc3MS0yLjIyMS0yLjcwMS00LjgzMi0yLjgxMi03LjQ2OWwtLjA2Mi0uMDMxek0yMzIuMTI2IDI4My42Mmw1Ny40MzcgNTEuMzc1LS4wNjIuMzEzYTEyLjg4IDEyLjg4IDAgMCAxIDEuNjI1IDE3Ljc1IDEyLjg5IDEyLjg5IDAgMCAxLTYuNjg3IDQuNDA2bC0uMDYyLjI1LTczLjYyNSAyMS4yNWMtMy43NDctMzQuMjY1IDQuMzI5LTY3LjU3NCAyMS4zNzUtOTUuMzQ0em0yNTguMTU2LjAzMWM4LjUzNCAxMy44MzMgMTQuOTk3IDI5LjI4MiAxOC44NDQgNDYuMDMxIDMuODAxIDE2LjU0OCA0Ljc1NSAzMy4wNjcgMy4xODggNDkuMDMxbC03NC0yMS4zMTItLjA2Mi0uMzEyYy02LjYyNy0xLjgxMS0xMC42OTktOC41NTItOS4xNTYtMTUuMzEyLjYzMi0yLjc3IDIuMTAyLTUuMTEzIDQuMDk0LTYuODQ0bC0uMDMxLS4xNTYgNTcuMTI1LTUxLjEyNXptLTE0MC42NTYgNTUuMzEzaDIzLjUzMWwxNC42MjUgMTguMjgxLTUuMjUgMjIuODEzLTIxLjEyNSAxMC4xNTYtMjEuMTg3LTEwLjE4Ny01LjI1LTIyLjgxMnptNzUuNDM4IDYyLjU2M2ExMi44MyAxMi44MyAwIDAgMSAyLjk2OS4yMTlsLjEyNS0uMTU2IDc2LjE1NiAxMi44NzVjLTExLjE0NiAzMS4zMTMtMzIuNDczIDU4LjQ0LTYwLjk2OSA3Ni41OTRsLTI5LjU2Mi03MS40MDYuMDk0LS4xMjVjLTIuNzE2LTYuMzEuMDAyLTEzLjcxIDYuMjUtMTYuNzE5IDEuNi0uNzcgMy4yNzEtMS4xOTcgNC45MzgtMS4yODF6bS0xMjcuOTA2LjMxM2ExMi45IDEyLjkgMCAwIDEgMTIuMzc1IDEwLjAzMSAxMi43NyAxMi43NyAwIDAgMS0uNzE5IDcuOTM4bC4yMTkuMjgxLTI5LjI1IDcwLjY4OGMtMjcuMzQ3LTE3LjU0OS00OS4xMjktNDMuODI0LTYwLjc4MS03Ni4wNjJsNzUuNS0xMi44MTIuMTI1LjE1NmMuODQ1LS4xNTUgMS43MDEtLjIzIDIuNTMxLS4yMTl6bTYzLjc4MSAzMC45NjljMi4wMjQtLjA3NCA0LjA3OS4zNDEgNi4wMzEgMS4yODEgMi41NiAxLjIzMyA0LjUzNyAzLjE3MyA1Ljc4MSA1LjVoLjI4MWwzNy4yMTkgNjcuMjVjLTQuODMgMS42MTktOS43OTYgMy4wMDMtMTQuODc1IDQuMTU2LTI4LjQ2NSA2LjQ2My01Ni44MzkgNC41MDUtODIuNTMxLTQuMjVsMzcuMTI1LTY3LjEyNWguMDYzYTEyLjkxIDEyLjkxIDAgMCAxIDEwLjkwNi02LjgxMnoiIHN0cm9rZT0ibm9uZSIgc3Ryb2tlLXdpZHRoPSIuMjUiLz4mI3hhOzwvc3ZnPg==;fontColor=default;" vertex="1" parent="1">
          <mxGeometry x="682" y="759.1" width="57.68" height="54.8" as="geometry" />
        </mxCell>
      </root>
    </mxGraphModel>
  </diagram>
</mxfile>
